<?xml version="1.0" encoding="UTF-8"?>
<svg width="24px" height="24px" viewBox="0 0 24 24" version="1.1" xmlns="http://www.w3.org/2000/svg" xmlns:xlink="http://www.w3.org/1999/xlink">
    <!-- Generator: sketchtool 51.3 (57544) - http://www.bohemiancoding.com/sketch -->
    <title>9920CFA6-B487-4A56-A094-403A3B2CD986</title>
    <desc>Created with sketchtool.</desc>
    <defs></defs>
    <g id="style-guide" stroke="none" stroke-width="1" fill="none" fill-rule="evenodd">
        <g id="icons" transform="translate(-108.000000, -370.000000)" fill="#2E4676" fill-rule="nonzero">
            <path d="M119.549562,370.001113 C122.625052,369.958217 125.581225,371.189743 127.71662,373.403466 C129.930344,375.538861 131.16187,378.495035 131.118973,381.570525 C131.164416,384.646506 129.932485,387.603652 127.71662,389.737584 C125.552933,391.905351 122.615893,393.123533 119.553091,393.123533 C116.490289,393.123533 113.553249,391.905351 111.389562,389.737584 C109.180318,387.600255 107.953898,384.644071 108.001326,381.570525 C107.957277,378.497626 109.183163,375.54273 111.389562,373.403466 C113.521809,371.189407 116.476022,369.957633 119.549562,370.001113 Z M119.549562,392.285819 C122.399978,392.323666 125.139928,391.184786 127.123679,389.137584 C129.180639,387.15409 130.32312,384.406512 130.278973,381.549349 C130.320308,378.694789 129.178119,375.950468 127.123679,373.968172 C125.140893,371.919553 122.400302,370.780407 119.549562,370.819937 C121.206032,370.819937 122.617797,371.869349 123.784856,373.968172 C125.026751,376.297629 125.639856,378.910623 125.563679,381.549349 C125.641417,384.190482 125.028256,386.80615 123.784856,389.137584 C122.613091,391.236407 121.201326,392.285819 119.549562,392.285819 Z" id="1A"></path>
        </g>
    </g>
</svg>