<?xml version="1.0" encoding="UTF-8"?>
<svg width="24px" height="24px" viewBox="0 0 24 24" version="1.1" xmlns="http://www.w3.org/2000/svg" xmlns:xlink="http://www.w3.org/1999/xlink">
    <!-- Generator: sketchtool 51.3 (57544) - http://www.bohemiancoding.com/sketch -->
    <title>9C5B830C-6FE4-4CE7-82FA-C8AEE47C86A7</title>
    <desc>Created with sketchtool.</desc>
    <defs></defs>
    <g id="style-guide" stroke="none" stroke-width="1" fill="none" fill-rule="evenodd">
        <g id="icons" transform="translate(-577.000000, -370.000000)" fill="#2E4676" fill-rule="nonzero">
            <path d="M588.570535,393.120084 C585.49382,393.165935 582.535196,391.937007 580.396417,389.72479 C578.186381,387.590358 576.957497,384.636948 577.001123,381.56479 C576.958075,378.490678 578.186713,375.535305 580.396417,373.397731 C582.556397,371.222999 585.494826,370 588.559947,370 C591.625068,370 594.563497,371.222999 596.723476,373.397731 C598.93318,375.535305 600.161819,378.490678 600.11877,381.56479 C600.162397,384.636948 598.933513,387.590358 596.723476,389.72479 C594.590732,391.933025 591.640252,393.161753 588.570535,393.120084 Z M588.570535,370.835378 C585.717192,370.793047 582.97335,371.932483 580.989359,373.983613 C578.938228,375.967605 577.798792,378.711447 577.841123,381.56479 C577.798792,384.418133 578.938228,387.161975 580.989359,389.145966 C582.97335,391.197097 585.717192,392.336533 588.570535,392.294202 C586.909359,392.294202 585.483476,391.24479 584.292888,389.145966 C583.050993,386.816509 582.437888,384.203515 582.514064,381.56479 C582.437888,378.926065 583.050993,376.31307 584.292888,373.983613 C585.483476,371.88479 586.909359,370.835378 588.570535,370.835378 Z" id="1D"></path>
        </g>
    </g>
</svg>