<?xml version="1.0" encoding="UTF-8"?>
<svg width="38px" height="38px" viewBox="0 0 38 38" version="1.1" xmlns="http://www.w3.org/2000/svg" xmlns:xlink="http://www.w3.org/1999/xlink">
    <!-- Generator: sketchtool 51.3 (57544) - http://www.bohemiancoding.com/sketch -->
    <title>2AFFAAB4-BC57-4527-9724-B787816C386A</title>
    <desc>Created with sketchtool.</desc>
    <defs></defs>
    <g id="style-guide" stroke="none" stroke-width="1" fill="none" fill-rule="evenodd">
        <g id="icons" transform="translate(-92.000000, -105.000000)" fill="#2E4676">
            <g id="2_ico" transform="translate(92.000000, 105.000000)">
                <path d="M19,38 C8.50658975,38 0,29.4934102 0,19 C0,8.50658975 8.50658975,0 19,0 C29.4934102,0 38,8.50658975 38,19 C38,29.4934102 29.4934102,38 19,38 Z M19,36 C28.3888407,36 36,28.3888407 36,19 C36,9.61115925 28.3888407,2 19,2 C9.61115925,2 2,9.61115925 2,19 C2,28.3888407 9.61115925,36 19,36 Z" id="Oval-8" fill-rule="nonzero"></path>
                <path d="M23.854,22.12 L23.854,23.968 L16.448,23.968 L16.448,22.498 L20.228,18.928 C20.6293353,18.5453314 20.8999993,18.2163347 21.04,17.941 C21.1800007,17.6656653 21.25,17.392668 21.25,17.122 C21.25,16.729998 21.1170013,16.4290011 20.851,16.219 C20.5849987,16.0089989 20.1953359,15.904 19.682,15.904 C19.2526645,15.904 18.8653351,15.9856659 18.52,16.149 C18.1746649,16.3123342 17.8853345,16.5573317 17.652,16.884 L16,15.82 C16.3826686,15.2506638 16.9099966,14.8050016 17.582,14.483 C18.2540034,14.1609984 19.0239957,14 19.892,14 C20.6200036,14 21.2569973,14.1189988 21.803,14.357 C22.3490027,14.5950012 22.7736652,14.9309978 23.077,15.365 C23.3803349,15.7990022 23.532,16.3099971 23.532,16.898 C23.532,17.4300027 23.4200011,17.929331 23.196,18.396 C22.9719989,18.862669 22.5380032,19.3946637 21.894,19.992 L19.64,22.12 L23.854,22.12 Z" id="2"></path>
            </g>
        </g>
    </g>
</svg>