<?xml version="1.0" encoding="UTF-8"?>
<svg width="24px" height="24px" viewBox="0 0 24 24" version="1.1" xmlns="http://www.w3.org/2000/svg" xmlns:xlink="http://www.w3.org/1999/xlink">
    <!-- Generator: sketchtool 51.3 (57544) - http://www.bohemiancoding.com/sketch -->
    <title>D8B0C7A9-841A-407B-8EE9-8A8DD181CCD2</title>
    <desc>Created with sketchtool.</desc>
    <defs></defs>
    <g id="style-guide" stroke="none" stroke-width="1" fill="none" fill-rule="evenodd">
        <g id="icons" transform="translate(-140.000000, -370.000000)" fill="#2E4676" fill-rule="nonzero">
            <path d="M151.549562,370.001113 C154.625052,369.958217 157.581225,371.189743 159.71662,373.403466 C161.930344,375.538861 163.16187,378.495035 163.118973,381.570525 C163.164416,384.646506 161.932485,387.603652 159.71662,389.737584 C157.552933,391.905351 154.615893,393.123533 151.553091,393.123533 C148.490289,393.123533 145.553249,391.905351 143.389562,389.737584 C141.180318,387.600255 139.953898,384.644071 140.001326,381.570525 C139.957277,378.497626 141.183163,375.54273 143.389562,373.403466 C145.521809,371.189407 148.476022,369.957633 151.549562,370.001113 Z M151.549562,392.285819 C154.404537,392.325888 157.1497,391.186964 159.137797,389.137584 C161.194757,387.15409 162.337238,384.406512 162.293091,381.549349 C162.334426,378.694789 161.192237,375.950468 159.137797,373.968172 C157.150664,371.917373 154.40486,370.778184 151.549562,370.819937 C152.71662,370.819937 153.723679,371.869349 154.570738,373.968172 C155.474376,376.390941 155.905674,378.964348 155.841326,381.549349 C155.906928,384.136738 155.475606,386.712692 154.570738,389.137584 C153.714267,391.236407 152.704856,392.285819 151.542503,392.285819 L151.549562,392.285819 Z" id="2A"></path>
        </g>
    </g>
</svg>