<?xml version="1.0" encoding="UTF-8"?>
<svg width="24px" height="24px" viewBox="0 0 24 24" version="1.1" xmlns="http://www.w3.org/2000/svg" xmlns:xlink="http://www.w3.org/1999/xlink">
    <!-- Generator: sketchtool 51.3 (57544) - http://www.bohemiancoding.com/sketch -->
    <title>BB787749-BDBA-48C0-9532-7CE718B7B29A</title>
    <desc>Created with sketchtool.</desc>
    <defs></defs>
    <g id="style-guide" stroke="none" stroke-width="1" fill="none" fill-rule="evenodd">
        <g id="icons" transform="translate(-542.000000, -370.000000)" fill="#2E4676" fill-rule="nonzero">
            <path d="M553.570535,393.113025 C550.49382,393.158876 547.535196,391.929948 545.396417,389.717731 C543.186381,387.583299 541.957497,384.62989 542.001123,381.557731 C541.961873,378.485009 543.192975,375.532409 545.403476,373.397731 C547.563455,371.222999 550.501884,370 553.567006,370 C556.632127,370 559.570556,371.222999 561.730535,373.397731 C563.940239,375.535305 565.168877,378.490678 565.125829,381.56479 C565.169456,384.636948 563.940572,387.590358 561.730535,389.72479 C559.594894,391.932231 556.64164,393.158495 553.570535,393.113025 Z M553.570535,370.828319 C550.715237,370.786566 547.969432,371.925756 545.9823,373.976555 C543.92786,375.958851 542.785671,378.703171 542.827006,381.557731 C542.785671,384.412291 543.92786,387.156612 545.9823,389.138908 C547.969432,391.189706 550.715237,392.328896 553.570535,392.287143 C552.394064,392.287143 551.384653,391.237731 550.5423,389.138908 C549.64549,386.714663 549.219055,384.141676 549.285829,381.557731 C549.223568,378.972878 549.654799,376.399864 550.556417,373.976555 C551.403476,371.877731 552.412888,370.828319 553.584653,370.828319 L553.570535,370.828319 Z" id="2D"></path>
        </g>
    </g>
</svg>