<?xml version="1.0" encoding="UTF-8"?>
<svg width="38px" height="38px" viewBox="0 0 38 38" version="1.1" xmlns="http://www.w3.org/2000/svg" xmlns:xlink="http://www.w3.org/1999/xlink">
    <!-- Generator: sketchtool 51.3 (57544) - http://www.bohemiancoding.com/sketch -->
    <title>832143B3-1453-40FC-82CE-02D94B8FE4B6</title>
    <desc>Created with sketchtool.</desc>
    <defs></defs>
    <g id="style-guide" stroke="none" stroke-width="1" fill="none" fill-rule="evenodd">
        <g id="icons" transform="translate(-157.000000, -108.000000)">
            <g id="3_ico" transform="translate(158.000000, 109.000000)">
                <circle id="Oval-8" stroke="#2E4676" stroke-width="2" cx="18" cy="18" r="18"></circle>
                <path d="M19.138,16.99 C19.996671,17.1300007 20.6546644,17.4496642 21.112,17.949 C21.5693356,18.4483358 21.798,19.066663 21.798,19.804 C21.798,20.3733362 21.6486682,20.8983309 21.35,21.379 C21.0513318,21.8596691 20.5963364,22.2446652 19.985,22.534 C19.3736636,22.8233348 18.6246711,22.968 17.738,22.968 C17.0473299,22.968 16.3683367,22.8770009 15.701,22.695 C15.0336633,22.5129991 14.466669,22.2540017 14,21.918 L14.882,20.182 C15.2553352,20.4620014 15.6869976,20.6789992 16.177,20.833 C16.6670025,20.9870008 17.1686641,21.064 17.682,21.064 C18.2513362,21.064 18.6993317,20.9543344 19.026,20.735 C19.3526683,20.5156656 19.516,20.2053353 19.516,19.804 C19.516,19.0013293 18.9046728,18.6 17.682,18.6 L16.646,18.6 L16.646,17.102 L18.662,14.82 L14.49,14.82 L14.49,13 L21.35,13 L21.35,14.47 L19.138,16.99 Z" id="3" fill="#2E4676"></path>
            </g>
        </g>
    </g>
</svg>