<?xml version="1.0" encoding="UTF-8"?>
<svg width="24px" height="24px" viewBox="0 0 24 24" version="1.1" xmlns="http://www.w3.org/2000/svg" xmlns:xlink="http://www.w3.org/1999/xlink">
    <!-- Generator: sketchtool 51.3 (57544) - http://www.bohemiancoding.com/sketch -->
    <title>A39CFA47-60FD-415A-B40B-BE6CDA866D0C</title>
    <desc>Created with sketchtool.</desc>
    <defs></defs>
    <g id="style-guide" stroke="none" stroke-width="1" fill="none" fill-rule="evenodd">
        <g id="icons" transform="translate(-175.000000, -370.000000)" fill="#2E4676" fill-rule="nonzero">
            <path d="M186.542723,370.00111 C189.618213,369.958214 192.574386,371.18974 194.709781,373.403463 C196.923505,375.538858 198.155031,378.495031 198.112134,381.570522 C198.157577,384.646502 196.925646,387.603648 194.709781,389.73758 C192.546094,391.905347 189.609054,393.123529 186.546252,393.123529 C183.48345,393.123529 180.54641,391.905347 178.382723,389.73758 C176.17427,387.597354 174.950313,384.638395 175.001546,381.563463 C174.957496,378.490564 176.183382,375.535668 178.389781,373.396404 C180.521554,371.186745 183.47268,369.957748 186.542723,370.00111 Z M186.542723,392.285816 C189.386463,392.32117 192.118913,391.182224 194.095664,389.13758 C196.152623,387.154086 197.295105,384.406509 197.250958,381.549345 C197.292293,378.694785 196.150104,375.950464 194.095664,373.968169 C192.11988,371.922108 189.386789,370.782894 186.542723,370.819933 C187.173311,370.819933 187.712134,371.869345 188.159193,373.968169 C188.656656,376.463925 188.893223,379.004649 188.865076,381.549345 C188.894122,384.096414 188.65755,386.639572 188.159193,389.13758 C187.726252,391.236404 187.194487,392.285816 186.563899,392.285816 L186.542723,392.285816 Z" id="3A"></path>
        </g>
    </g>
</svg>