<?xml version="1.0" encoding="UTF-8"?>
<svg width="24px" height="24px" viewBox="0 0 24 24" version="1.1" xmlns="http://www.w3.org/2000/svg" xmlns:xlink="http://www.w3.org/1999/xlink">
    <!-- Generator: sketchtool 51.3 (57544) - http://www.bohemiancoding.com/sketch -->
    <title>B8B0255F-85F0-48BB-B520-D06CA29FA287</title>
    <desc>Created with sketchtool.</desc>
    <defs></defs>
    <g id="style-guide" stroke="none" stroke-width="1" fill="none" fill-rule="evenodd">
        <g id="icons" transform="translate(-206.000000, -370.000000)" fill="#2E4676" fill-rule="nonzero">
            <path d="M217.542743,370.001542 C220.618233,369.958646 223.574406,371.190172 225.709801,373.403895 C227.92432,375.536393 229.158309,378.489793 229.119213,381.563895 C229.164656,384.639876 227.932725,387.597022 225.71686,389.730954 C223.553173,391.898721 220.616133,393.116903 217.553331,393.116903 C214.490529,393.116903 211.553489,391.898721 209.389801,389.730954 C207.180558,387.593625 205.954137,384.637441 206.001566,381.563895 C205.95023,378.498678 207.162877,375.547478 209.354507,373.403895 C211.493491,371.182603 214.45944,369.9502 217.542743,370.001542 Z M217.542743,392.286248 C220.3886,392.321873 223.123337,391.183038 225.102743,389.138013 C227.159702,387.154519 228.302183,384.406941 228.258037,381.549778 C228.299372,378.695218 227.157182,375.950897 225.102743,373.968601 C223.124302,371.922161 220.388925,370.783059 217.542743,370.820366 L217.542743,392.286248 Z" id="4A"></path>
        </g>
    </g>
</svg>