<?xml version="1.0" encoding="UTF-8"?>
<svg width="24px" height="24px" viewBox="0 0 24 24" version="1.1" xmlns="http://www.w3.org/2000/svg" xmlns:xlink="http://www.w3.org/1999/xlink">
    <!-- Generator: sketchtool 51.3 (57544) - http://www.bohemiancoding.com/sketch -->
    <title>BDA3BDAF-C95D-416F-807D-1EC69CD3ABA3</title>
    <desc>Created with sketchtool.</desc>
    <defs></defs>
    <g id="style-guide" stroke="none" stroke-width="1" fill="none" fill-rule="evenodd">
        <g id="icons" transform="translate(-474.000000, -370.000000)" fill="#2E4676" fill-rule="nonzero">
            <path d="M485.570535,393.113025 C482.49382,393.158876 479.535196,391.929948 477.396417,389.717731 C475.186381,387.583299 473.957497,384.62989 474.001123,381.557731 C473.96003,378.486061 475.188512,375.533616 477.396417,373.397731 C479.556397,371.222999 482.494826,370 485.559947,370 C488.625068,370 491.563497,371.222999 493.723476,373.397731 C495.93318,375.535305 497.161819,378.490678 497.11877,381.56479 C497.162397,384.636948 495.933513,387.590358 493.723476,389.72479 C491.589524,391.930429 488.6392,393.156538 485.570535,393.113025 Z M485.570535,370.828319 C482.721749,370.788213 479.983121,371.927604 478.003476,373.976555 C475.952345,375.960546 474.81291,378.704388 474.855241,381.557731 C474.81291,384.411075 475.952345,387.154916 478.003476,389.138908 C479.983121,391.187858 482.721749,392.32725 485.570535,392.287143 L485.570535,370.828319 Z" id="4D"></path>
        </g>
    </g>
</svg>