<?xml version="1.0" encoding="UTF-8"?>
<svg width="24px" height="24px" viewBox="0 0 24 24" version="1.1" xmlns="http://www.w3.org/2000/svg" xmlns:xlink="http://www.w3.org/1999/xlink">
    <!-- Generator: sketchtool 51.3 (57544) - http://www.bohemiancoding.com/sketch -->
    <title>9466A301-C874-45B6-98FC-250AAD38D311</title>
    <desc>Created with sketchtool.</desc>
    <defs></defs>
    <g id="style-guide" stroke="none" stroke-width="1" fill="none" fill-rule="evenodd">
        <g id="icons" transform="translate(-238.000000, -370.000000)" fill="#2E4676" fill-rule="nonzero">
            <path d="M249.570535,393.120084 C246.49382,393.165935 243.535196,391.937007 241.396417,389.72479 C239.186381,387.590358 237.957497,384.636948 238.001123,381.56479 C237.958075,378.490678 239.186713,375.535305 241.396417,373.397731 C243.556397,371.222999 246.494826,370 249.559947,370 C252.625068,370 255.563497,371.222999 257.723476,373.397731 C259.93318,375.535305 261.161819,378.490678 261.11877,381.56479 C261.162397,384.636948 259.933513,387.590358 257.723476,389.72479 C255.590732,391.933025 252.640252,393.161753 249.570535,393.120084 Z M249.570535,370.835378 C248.935241,370.835378 248.391711,371.88479 247.939947,373.983613 C247.442484,376.47937 247.205917,379.020094 247.234064,381.56479 C247.205917,384.109486 247.442484,386.65021 247.939947,389.145966 C248.410535,391.24479 248.954064,392.294202 249.570535,392.294202 C252.425833,392.335955 255.171638,391.196765 257.15877,389.145966 C259.192455,387.154022 260.313696,384.41094 260.257594,381.56479 C260.298929,378.71023 259.156739,375.965909 257.1023,373.983613 C255.121933,371.94 252.387832,370.80143 249.5423,370.835378 L249.570535,370.835378 Z" id="5A"></path>
        </g>
    </g>
</svg>