<?xml version="1.0" encoding="UTF-8"?>
<svg width="24px" height="24px" viewBox="0 0 24 24" version="1.1" xmlns="http://www.w3.org/2000/svg" xmlns:xlink="http://www.w3.org/1999/xlink">
    <!-- Generator: sketchtool 51.3 (57544) - http://www.bohemiancoding.com/sketch -->
    <title>AF32AB55-2FE0-44BA-85DC-A439B6687099</title>
    <desc>Created with sketchtool.</desc>
    <defs></defs>
    <g id="style-guide" stroke="none" stroke-width="1" fill="none" fill-rule="evenodd">
        <g id="icons" transform="translate(-438.000000, -370.000000)" fill="#2E4676" fill-rule="nonzero">
            <path d="M449.521902,370.001084 C452.597393,369.958188 455.553566,371.189714 457.688961,373.403437 C459.902684,375.538832 461.13421,378.495005 461.091314,381.570496 C461.136757,384.646477 459.904826,387.603623 457.688961,389.737555 C455.525273,391.905321 452.588234,393.123504 449.525432,393.123504 C446.462629,393.123504 443.52559,391.905321 441.361902,389.737555 C439.161232,387.593707 437.945133,384.635213 438.001902,381.563437 C437.957852,378.490539 439.183738,375.535642 441.390137,373.396378 C443.516846,371.192121 446.459185,369.963592 449.521902,370.001084 Z M449.521902,392.28579 C450.15249,392.28579 450.691314,391.236378 451.138373,389.137555 C451.636729,386.639546 451.873302,384.096389 451.844255,381.54932 C451.872402,379.004624 451.635835,376.4639 451.138373,373.968143 C450.667784,371.86932 450.128961,370.819908 449.521902,370.819908 C446.662046,370.775931 443.911027,371.915164 441.919549,373.968143 C439.865109,375.950439 438.72292,378.69476 438.764255,381.54932 C438.720108,384.406483 439.862589,387.154061 441.919549,389.137555 C443.917063,391.194518 446.676227,392.333951 449.543079,392.28579 L449.521902,392.28579 Z" id="5D"></path>
        </g>
    </g>
</svg>