<?xml version="1.0" encoding="UTF-8"?>
<svg width="24px" height="24px" viewBox="0 0 24 24" version="1.1" xmlns="http://www.w3.org/2000/svg" xmlns:xlink="http://www.w3.org/1999/xlink">
    <!-- Generator: sketchtool 51.3 (57544) - http://www.bohemiancoding.com/sketch -->
    <title>9990ED3D-6AAD-44DA-8925-9FD8D2997D01</title>
    <desc>Created with sketchtool.</desc>
    <defs></defs>
    <g id="style-guide" stroke="none" stroke-width="1" fill="none" fill-rule="evenodd">
        <g id="icons" transform="translate(-269.000000, -370.000000)" fill="#2E4676" fill-rule="nonzero">
            <path d="M280.570535,393.120084 C277.49382,393.165935 274.535196,391.937007 272.396417,389.72479 C270.186381,387.590358 268.957497,384.636948 269.001123,381.56479 C268.958075,378.490678 270.186713,375.535305 272.396417,373.397731 C274.556397,371.222999 277.494826,370 280.559947,370 C283.625068,370 286.563497,371.222999 288.723476,373.397731 C290.93318,375.535305 292.161819,378.490678 292.11877,381.56479 C292.162397,384.636948 290.933513,387.590358 288.723476,389.72479 C286.590732,391.933025 283.640252,393.161753 280.570535,393.120084 Z M280.570535,370.835378 C278.909359,370.835378 277.483476,371.88479 276.292888,373.983613 C275.050993,376.31307 274.437888,378.926065 274.514064,381.56479 C274.427044,384.200377 275.027942,386.813189 276.257594,389.145966 C277.443476,391.24479 278.869359,392.294202 280.535241,392.294202 C283.381423,392.331509 286.1168,391.192407 288.095241,389.145966 C290.149681,387.163671 291.29187,384.41935 291.250535,381.56479 C291.29187,378.71023 290.149681,375.965909 288.095241,373.983613 C286.125258,371.94614 283.404503,370.807813 280.570535,370.835378 Z" id="6A"></path>
        </g>
    </g>
</svg>