<?xml version="1.0" encoding="UTF-8"?>
<svg width="24px" height="24px" viewBox="0 0 24 24" version="1.1" xmlns="http://www.w3.org/2000/svg" xmlns:xlink="http://www.w3.org/1999/xlink">
    <!-- Generator: sketchtool 51.3 (57544) - http://www.bohemiancoding.com/sketch -->
    <title>363350D3-662B-416E-B4B8-13D03EE4284F</title>
    <desc>Created with sketchtool.</desc>
    <defs></defs>
    <g id="style-guide" stroke="none" stroke-width="1" fill="none" fill-rule="evenodd">
        <g id="icons" transform="translate(-404.000000, -370.000000)" fill="#2E4676" fill-rule="nonzero">
            <path d="M415.549562,370.001113 C418.625052,369.958217 421.581225,371.189743 423.71662,373.403466 C425.930344,375.538861 427.16187,378.495035 427.118973,381.570525 C427.164416,384.646506 425.932485,387.603652 423.71662,389.737584 C421.552933,391.905351 418.615893,393.123533 415.553091,393.123533 C412.490289,393.123533 409.553249,391.905351 407.389562,389.737584 C405.180318,387.600255 403.953898,384.644071 404.001326,381.570525 C403.957277,378.497626 405.183163,375.54273 407.389562,373.403466 C409.521809,371.189407 412.476022,369.957633 415.549562,370.001113 Z M415.549562,392.285819 C417.206032,392.285819 418.617797,391.236407 419.784856,389.137584 C421.028256,386.80615 421.641417,384.190482 421.563679,381.549349 C421.639856,378.910623 421.026751,376.297629 419.784856,373.968172 C418.598973,371.869349 417.187209,370.819937 415.549562,370.819937 C412.696218,370.777606 409.952377,371.917041 407.968385,373.968172 C405.917254,375.952164 404.777819,378.696005 404.82015,381.549349 C404.775011,384.405294 405.914737,387.152391 407.968385,389.137584 C409.953345,391.187293 412.696542,392.326461 415.549562,392.285819 Z" id="6D"></path>
        </g>
    </g>
</svg>