<?xml version="1.0" encoding="UTF-8"?>
<svg width="24px" height="24px" viewBox="0 0 24 24" version="1.1" xmlns="http://www.w3.org/2000/svg" xmlns:xlink="http://www.w3.org/1999/xlink">
    <!-- Generator: sketchtool 51.3 (57544) - http://www.bohemiancoding.com/sketch -->
    <title>4E179BC6-BD1D-4B25-81EE-3DB80A95265C</title>
    <desc>Created with sketchtool.</desc>
    <defs></defs>
    <g id="style-guide" stroke="none" stroke-width="1" fill="none" fill-rule="evenodd">
        <g id="icons" transform="translate(-302.000000, -370.000000)" fill="#2E4676" fill-rule="nonzero">
            <path d="M313.542716,393.120084 C310.466001,393.165935 307.507376,391.937007 305.368598,389.72479 C303.168943,387.585529 301.950534,384.632741 302.001539,381.56479 C301.958491,378.490678 303.187129,375.535305 305.396833,373.397731 C307.556813,371.222999 310.495242,370 313.560363,370 C316.625484,370 319.563913,371.222999 321.723892,373.397731 C323.933597,375.535305 325.162235,378.490678 325.119186,381.56479 C325.162813,384.636948 323.933929,387.590358 321.723892,389.72479 C319.5844,391.940241 316.622196,393.169594 313.542716,393.120084 Z M313.542716,370.835378 C311.481539,370.835378 309.721539,371.88479 308.262716,373.983613 C306.762607,376.221595 305.997693,378.871652 306.074481,381.56479 C305.997693,384.257928 306.762607,386.907985 308.262716,389.145966 C309.721539,391.24479 311.481539,392.294202 313.542716,392.294202 C316.398014,392.335955 319.143819,391.196765 321.130951,389.145966 C323.185391,387.163671 324.32758,384.41935 324.286245,381.56479 C324.32758,378.71023 323.185391,375.965909 321.130951,373.983613 C319.138752,371.927405 316.384157,370.787749 313.521539,370.835378 L313.542716,370.835378 Z" id="7A"></path>
        </g>
    </g>
</svg>