<?xml version="1.0" encoding="UTF-8"?>
<svg width="24px" height="24px" viewBox="0 0 24 24" version="1.1" xmlns="http://www.w3.org/2000/svg" xmlns:xlink="http://www.w3.org/1999/xlink">
    <!-- Generator: sketchtool 51.3 (57544) - http://www.bohemiancoding.com/sketch -->
    <title>E17A681E-8B18-4562-AA66-A1BDE5667A29</title>
    <desc>Created with sketchtool.</desc>
    <defs></defs>
    <g id="style-guide" stroke="none" stroke-width="1" fill="none" fill-rule="evenodd">
        <g id="icons" transform="translate(-371.000000, -370.000000)" fill="#2E4676" fill-rule="nonzero">
            <path d="M382.549562,370.001113 C385.625052,369.958217 388.581225,371.189743 390.71662,373.403466 C392.930344,375.538861 394.16187,378.495035 394.118973,381.570525 C394.164416,384.646506 392.932485,387.603652 390.71662,389.737584 C388.552933,391.905351 385.615893,393.123533 382.553091,393.123533 C379.490289,393.123533 376.553249,391.905351 374.389562,389.737584 C372.180318,387.600255 370.953898,384.644071 371.001326,381.570525 C370.957277,378.497626 372.183163,375.54273 374.389562,373.403466 C376.521809,371.189407 379.476022,369.957633 382.549562,370.001113 Z M382.549562,392.285819 C384.601326,392.285819 386.358973,391.236407 387.822503,389.137584 C389.328682,386.89946 390.096352,384.24594 390.017797,381.549349 C390.094395,378.855208 389.326831,376.204521 387.822503,373.968172 C386.358973,371.869349 384.601326,370.819937 382.549562,370.819937 C379.689706,370.77596 376.938687,371.915193 374.947209,373.968172 C372.892769,375.950468 371.750579,378.694789 371.791915,381.549349 C371.747768,384.406512 372.890249,387.15409 374.947209,389.137584 C376.944723,391.194547 379.703886,392.33398 382.570738,392.285819 L382.549562,392.285819 Z" id="7D"></path>
        </g>
    </g>
</svg>