<?xml version="1.0" encoding="UTF-8"?>
<svg width="24px" height="24px" viewBox="0 0 24 24" version="1.1" xmlns="http://www.w3.org/2000/svg" xmlns:xlink="http://www.w3.org/1999/xlink">
    <!-- Generator: sketchtool 51.3 (57544) - http://www.bohemiancoding.com/sketch -->
    <title>A98F0C3B-9EC9-4611-8CDB-2BBDBE32F20B</title>
    <desc>Created with sketchtool.</desc>
    <defs></defs>
    <g id="style-guide" stroke="none" stroke-width="1" fill="none" fill-rule="evenodd">
        <g id="icons" transform="translate(-76.000000, -370.000000)" fill="#2E4676" fill-rule="nonzero">
            <path d="M87.5498015,370.00166 C90.625292,369.958764 93.5814652,371.19029 95.7168603,373.404013 C97.9287818,375.537721 99.1601514,378.490964 99.1192132,381.564013 C99.1646561,384.639994 97.932725,387.59714 95.7168603,389.731072 C93.5531725,391.898839 90.616133,393.117021 87.5533309,393.117021 C84.4905288,393.117021 81.5534892,391.898839 79.3898015,389.731072 C77.1805578,387.593743 75.9541374,384.637559 76.0015662,381.564013 C75.9502297,378.498796 77.1628765,375.547596 79.3545073,373.404013 C81.4951734,371.180909 84.4640594,369.948348 87.5498015,370.00166 Z M87.5498015,392.286366 C90.4047766,392.326435 93.14994,391.187511 95.1380368,389.138131 C97.1949964,387.154637 98.3374775,384.407059 98.2933309,381.549896 C98.329024,378.695668 97.1817501,375.953964 95.1239191,373.975778 C93.1379938,371.922384 90.3920338,370.780575 87.5356838,370.820484 C89.9796886,370.837119 92.2732231,372.0035 93.726272,373.968719 C95.4580232,376.112015 96.3690166,378.802449 96.2956838,381.556955 C96.3656613,384.313323 95.4495248,387.004161 93.7121544,389.14519 C92.2606004,391.103792 89.9734605,392.266966 87.5356838,392.286366 L87.5498015,392.286366 Z" id="CA"></path>
        </g>
    </g>
</svg>