<?xml version="1.0" encoding="UTF-8"?>
<svg width="18px" height="21px" viewBox="0 0 18 21" version="1.1" xmlns="http://www.w3.org/2000/svg" xmlns:xlink="http://www.w3.org/1999/xlink">
    <!-- Generator: sketchtool 51.3 (57544) - http://www.bohemiancoding.com/sketch -->
    <title>37B80903-4F32-43AF-9DD3-E0C91892A30A</title>
    <desc>Created with sketchtool.</desc>
    <defs></defs>
    <g id="style-guide" stroke="none" stroke-width="1" fill="none" fill-rule="evenodd">
        <g id="icons" transform="translate(-404.000000, -30.000000)" fill="#2E4676" fill-rule="nonzero">
            <g id="calender_ico" transform="translate(404.000000, 30.000000)">
                <path d="M2,5 L2,19 L16,19 L16,5 L2,5 Z M0,3 L18,3 L18,21 L0,21 L0,3 Z" id="Rectangle-14"></path>
                <path d="M5,3.5 L5,7 L6,6 L4,6 L5,7 L5,3.5 Z M5,3.5 L5,0 L4,1 L6,1 L5,0 L5,3.5 Z M4,0 L6,0 L6,7 L4,7 L4,0 Z" id="Rectangle-5"></path>
                <path d="M13,3.5 L13,7 L14,6 L12,6 L13,7 L13,3.5 Z M13,3.5 L13,0 L12,1 L14,1 L13,0 L13,3.5 Z M12,0 L14,0 L14,7 L12,7 L12,0 Z" id="Rectangle-5"></path>
                <polygon id="Line-5" points="0 12 0 10 17 10 17 12"></polygon>
            </g>
        </g>
    </g>
</svg>