<?xml version="1.0" encoding="UTF-8"?>
<svg width="24px" height="24px" viewBox="0 0 24 24" version="1.1" xmlns="http://www.w3.org/2000/svg" xmlns:xlink="http://www.w3.org/1999/xlink">
    <!-- Generator: sketchtool 51.3 (57544) - http://www.bohemiancoding.com/sketch -->
    <title>8D3D6FD1-0606-4AB4-9461-20205C2E14B2</title>
    <desc>Created with sketchtool.</desc>
    <defs></defs>
    <g id="style-guide" stroke="none" stroke-width="1" fill="none" fill-rule="evenodd">
        <g id="icons" transform="translate(-616.000000, -370.000000)" fill="#2E4676" fill-rule="nonzero">
            <path d="M627.563476,393.113025 C624.489202,393.156918 621.533507,391.928146 619.396417,389.717731 C617.186381,387.583299 615.957497,384.62989 616.001123,381.557731 C615.96003,378.486061 617.188512,375.533616 619.396417,373.397731 C621.556397,371.222999 624.494826,370 627.559947,370 C630.625068,370 633.563497,371.222999 635.723476,373.397731 C637.93318,375.535305 639.161819,378.490678 639.11877,381.56479 C639.162397,384.636948 637.933513,387.590358 635.723476,389.72479 C633.587835,391.932231 630.634581,393.158495 627.563476,393.113025 Z M627.563476,370.828319 C624.710133,370.785989 621.966291,371.925424 619.9823,373.976555 C617.931169,375.960546 616.791734,378.704388 616.834064,381.557731 C616.791734,384.411075 617.931169,387.154916 619.9823,389.138908 C621.966291,391.190039 624.710133,392.329474 627.563476,392.287143 C625.121962,392.268293 622.831508,391.102148 621.379947,389.138908 C619.648353,386.997849 618.735063,384.310524 618.803476,381.557731 C618.733072,378.80582 619.643828,376.118591 621.372888,373.976555 C622.825937,372.011336 625.119471,370.844955 627.563476,370.828319 Z" id="CD"></path>
        </g>
    </g>
</svg>