<?xml version="1.0" encoding="UTF-8"?>
<svg width="14px" height="14px" viewBox="0 0 14 14" version="1.1" xmlns="http://www.w3.org/2000/svg" xmlns:xlink="http://www.w3.org/1999/xlink">
    <!-- Generator: sketchtool 51.3 (57544) - http://www.bohemiancoding.com/sketch -->
    <title>861D6FE0-319E-47ED-BB8A-6DB58A060430</title>
    <desc>Created with sketchtool.</desc>
    <defs></defs>
    <g id="style-guide" stroke="none" stroke-width="1" fill="none" fill-rule="evenodd">
        <g id="icons" transform="translate(-1104.000000, -38.000000)" fill="#2E4676" fill-rule="nonzero">
            <g id="collections_co" transform="translate(1104.000000, 38.000000)">
                <path d="M4,2 L6,2 L4,0 L4,2 Z M4,4 L4,6 L6,4 L4,4 Z M2,4 L0,4 L2,6 L2,4 Z M2,2 L2,0 L0,2 L2,2 Z M0,0 L6,0 L6,6 L0,6 L0,0 Z" id="Rectangle-22"></path>
                <path d="M4,10 L6,10 L4,8 L4,10 Z M4,12 L4,14 L6,12 L4,12 Z M2,12 L0,12 L2,14 L2,12 Z M2,10 L2,8 L0,10 L2,10 Z M0,8 L6,8 L6,14 L0,14 L0,8 Z" id="Rectangle-22"></path>
                <path d="M12,2 L14,2 L12,0 L12,2 Z M12,4 L12,6 L14,4 L12,4 Z M10,4 L8,4 L10,6 L10,4 Z M10,2 L10,0 L8,2 L10,2 Z M8,0 L14,0 L14,6 L8,6 L8,0 Z" id="Rectangle-22"></path>
                <path d="M12,10 L14,10 L12,8 L12,10 Z M12,12 L12,14 L14,12 L12,12 Z M10,12 L8,12 L10,14 L10,12 Z M10,10 L10,8 L8,10 L10,10 Z M8,8 L14,8 L14,14 L8,14 L8,8 Z" id="Rectangle-22"></path>
            </g>
        </g>
    </g>
</svg>