<?xml version="1.0" encoding="UTF-8"?>
<svg width="13px" height="22px" viewBox="0 0 13 22" version="1.1" xmlns="http://www.w3.org/2000/svg" xmlns:xlink="http://www.w3.org/1999/xlink">
    <!-- Generator: sketchtool 51.3 (57544) - http://www.bohemiancoding.com/sketch -->
    <title>17235806-34E7-4B7C-89ED-C0CA55B991B2</title>
    <desc>Created with sketchtool.</desc>
    <defs></defs>
    <g id="style-guide" stroke="none" stroke-width="1" fill="none" fill-rule="evenodd">
        <g id="icons" transform="translate(-925.000000, -30.000000)" fill="#2E4676" fill-rule="nonzero">
            <g id="facebook_ico" transform="translate(926.000000, 31.000000)">
                <path d="M2,7 L2,5 C2,3.40870099 2.63215894,1.8825735 3.75735928,0.757397156 C4.88248987,-0.367841432 6.40865478,-1 8,-1 L11,-1 C11.5522847,-1 12,-0.55228475 12,0 L12,4 C12,4.55228475 11.5522847,5 11,5 L8,5 L8,7 L11,7 C11.6505712,7 12.1279292,7.6113889 11.9701425,8.24253563 L10.9701425,12.2425356 C10.8588507,12.6877026 10.4588676,13 10,13 L8,13 L8,20 C8,20.5522847 7.55228475,21 7,21 L3,21 C2.44771525,21 2,20.5522847 2,20 L2,13 L4.4408921e-16,13 C-0.55228475,13 -1,12.5522847 -1,12 L-1,8 C-1,7.44771525 -0.55228475,7 4.4408921e-16,7 L2,7 Z M10,1 L8,1 C6.93910391,1 5.92168092,1.42143064 5.17159924,2.17158432 C4.4214375,2.92173007 4,3.93914405 4,5 L4,8 C4,8.55228475 3.55228475,9 3,9 L1,9 L1,11 L3,11 C3.55228475,11 4,11.4477153 4,12 L4,19 L6,19 L6,12 C6,11.4477153 6.44771525,11 7,11 L9.21922359,11 L9.71922359,9 L7,9 C6.44771525,9 6,8.55228475 6,8 L6,5 C6,4.46960325 6.21072557,3.96093087 6.58573666,3.58583979 C6.96078159,3.21073484 7.46956138,3 8,3 L10,3 L10,1 Z" id="Shape"></path>
            </g>
        </g>
    </g>
</svg>