<?xml version="1.0" encoding="UTF-8"?>
<svg width="29px" height="34px" viewBox="0 0 29 34" version="1.1" xmlns="http://www.w3.org/2000/svg" xmlns:xlink="http://www.w3.org/1999/xlink">
    <!-- Generator: sketchtool 51.3 (57544) - http://www.bohemiancoding.com/sketch -->
    <title>4041BAB8-F65A-410C-B5AD-0EAF3300064F</title>
    <desc>Created with sketchtool.</desc>
    <defs></defs>
    <g id="style-guide" stroke="none" stroke-width="1" fill="none" fill-rule="evenodd">
        <g id="icons" transform="translate(-547.000000, -113.000000)" fill="#2E4676" fill-rule="nonzero">
            <g id="hand-finished" transform="translate(548.000000, 114.000000)">
                <g id="ico_hand">
                    <path d="M8.58270168,18.3905337 C7.5530184,18.8623518 6.89693431,19.1930347 6.14447809,19.6612615 C5.61964357,19.9878474 5.15941384,20.323051 4.77620725,20.6651735 C4.01941431,21.3408297 2.68662852,23.5478909 0.896425112,27.1688307 L-0.896425112,26.2824402 C1.01517148,22.4159655 2.42253226,20.08541 3.44423247,19.1732475 C3.92060369,18.7479486 4.47162112,18.3466208 5.08782258,17.9631805 C5.9314409,17.4382268 6.64761836,17.0772552 7.74956751,16.5723237 C8.38806792,16.2797522 10.1746294,15.690231 13.2049029,14.7659951 L13.3242671,14.7295889 L13.4489177,14.723634 C14.6540966,14.6660592 15.5757434,15.1164664 15.9422607,16.1140956 C16.4803709,17.578786 15.7645473,18.6880947 13.4982701,19.8275899 C14.1240891,19.8271214 15.3805563,19.5577119 17.197483,19.0162983 L24.2870275,13.4070944 L24.4472734,13.3035204 C25.5219995,12.7463904 26.5973253,12.964206 27.3615798,13.8984601 C27.8616619,14.5097798 28.0683906,14.9166015 27.9852564,15.4999132 C27.9380279,15.831292 27.8027104,16.0894823 27.571669,16.39844 C27.4783239,16.5232646 27.080382,17.0103702 27.024777,17.0804593 C26.4597725,17.7926372 24.9086803,19.5018919 22.338532,22.2476407 L22.2217413,22.3541334 C18.8235718,24.9925651 16.6020763,26.6140925 15.505408,27.2503064 L15.3294414,27.3523905 L15.1275767,27.3776109 C13.3111133,27.6045543 11.0596037,27.7199417 8.36857261,27.7254299 C8.36298643,27.7358362 8.34461466,27.7532167 8.31726014,27.7800298 C8.15877886,27.935374 7.95621471,28.1892659 7.71976087,28.5362972 C7.21184015,29.2817466 6.49666335,30.5891389 5.58837816,32.4404601 L3.79283382,31.5595399 C4.73967236,29.6296369 5.4929969,28.2525079 6.06695514,27.4101386 C6.77143362,26.3762113 7.33910311,25.8197787 8.04411781,25.7331074 L8.16613459,25.7256355 C10.7660962,25.7256355 12.9365096,25.6225935 14.6730913,25.4180954 C15.7240188,24.775157 17.8248507,23.2347218 20.9325873,20.8229899 C23.4258851,18.1586057 24.9450999,16.4838958 25.4579677,15.8374353 C25.689931,15.5450497 25.8259052,15.374016 25.9047984,15.2791451 C25.8786236,15.2453373 25.8483006,15.2072755 25.8135553,15.1648014 C25.6699037,14.9891962 25.61796,14.9609219 25.4461769,15.040267 L18.139105,20.8215772 L17.956819,20.8765789 C15.8593383,21.5094584 14.3984643,21.8275905 13.4966361,21.8275905 C12.5309055,21.8275905 11.8693352,21.2633996 11.5293699,20.4447474 C11.4271541,20.1986069 11.36051,19.9459847 11.3196529,19.6950694 C11.2949014,19.5430639 11.2836065,19.4185418 11.2804181,19.3314523 L11.2555799,18.6530267 L11.8769518,18.379576 C13.0861946,17.8474174 13.7719848,17.409879 14.0342275,17.0819898 C14.1234434,16.9704406 14.1240141,16.9645764 14.0649464,16.803799 C14.0446397,16.748526 13.9759248,16.7102185 13.6635849,16.7170811 C10.8194175,17.5857997 9.09525754,18.155672 8.58270168,18.3905337 Z" id="Path-5"></path>
                    <path d="M19.2783134,9.24259396 C19.9672295,8.60601055 20.2818845,8.31972546 20.7055626,7.9507483 C23.9860037,5.0938438 23.4896112,2.50384774 21.0530313,1.33151093 C19.6809048,0.671325578 18.4261313,0.986550271 17.0716232,2.41071963 L16.4063735,3.11018261 L15.6838626,2.47003917 C13.8557771,0.850358551 12.3750911,0.716566415 10.8973203,1.9543241 C9.79989611,3.3310199 9.7075403,4.73831049 10.6273259,6.37717854 L16.4169069,11.705297 C17.313647,11.0246675 18.0403582,10.3865093 19.2783134,9.24259396 Z M16.2950453,0.394072452 C18.0429105,-1.09083981 19.9680932,-1.40995229 21.9201633,-0.470732676 C25.6013389,1.30042926 26.4289226,5.61846057 22.0190577,9.4589693 C21.6148393,9.81099923 21.3104502,10.087944 20.6363873,10.7108025 C19.0576888,12.1695769 18.2573524,12.8551968 16.9319644,13.8110712 L16.270206,14.2883336 L9.05053972,7.64411576 L8.97516486,7.5159751 C7.54594877,5.08624323 7.68676767,2.7113935 9.40561034,0.618428044 L9.52431682,0.496665798 C11.6164867,-1.31247129 13.9629406,-1.31694814 16.2950453,0.394072452 Z" id="Path-7"></path>
                </g>
            </g>
        </g>
    </g>
</svg>