<?xml version="1.0" encoding="UTF-8"?>
<svg width="19px" height="24px" viewBox="0 0 19 24" version="1.1" xmlns="http://www.w3.org/2000/svg" xmlns:xlink="http://www.w3.org/1999/xlink">
    <!-- Generator: sketchtool 51.3 (57544) - http://www.bohemiancoding.com/sketch -->
    <title>15610084-579B-4D27-B592-21209F77610C</title>
    <desc>Created with sketchtool.</desc>
    <defs></defs>
    <g id="style-guide" stroke="none" stroke-width="1" fill="none" fill-rule="evenodd">
        <g id="icons" transform="translate(-201.000000, -29.000000)" fill="#2E4676">
            <g id="ico_returns" transform="translate(202.000000, 29.000000)">
                <polygon id="Line-4" fill-rule="nonzero" points="6.5 11.2368421 8.5 11.2368421 8.5 21.7631579 6.5 21.7631579"></polygon>
                <path d="M7,7.96456548 L7,5.96456548 L10.7166276,5.96456548 C11.6640086,5.96456548 12,5.59468521 12.0015479,4.39526797 C12.0577214,3.38685808 11.7539423,3.06942485 10.7166276,3.06488176 L7,3.06488176 L7,1.06488176 L10.720998,1.06489131 C12.9002417,1.0744156 14.1187109,2.34765233 14,4.45088671 C14,6.65865991 12.8137431,7.96456548 10.7166276,7.96456548 L7,7.96456548 Z" id="Path-7" fill-rule="nonzero"></path>
                <polygon id="Triangle" points="5 2 9 0 9 4"></polygon>
                <path d="M7.7472752,11.2769982 L17.4355469,6.45999009 L17.4355469,19.3413791 L7.39260477,23.7333617 L-1,19.2892777 L-1,8.13212557 L5.04940604,5.10567611 L5.94424631,6.89432389 L2.29463424,8.72018355 L7.7472752,11.2769982 Z M1,10.3220757 L1,18.0852341 L7.47555929,21.5141969 L15.4355469,18.0331326 L15.4355469,9.68795913 L7.77274433,13.4979041 L1,10.3220757 Z" id="Path-2" fill-rule="nonzero"></path>
            </g>
        </g>
    </g>
</svg>