<?xml version="1.0" encoding="UTF-8"?>
<svg width="14px" height="14px" viewBox="0 0 14 14" version="1.1" xmlns="http://www.w3.org/2000/svg" xmlns:xlink="http://www.w3.org/1999/xlink">
    <!-- Generator: sketchtool 51.3 (57544) - http://www.bohemiancoding.com/sketch -->
    <title>C8C9AF3E-C652-4260-B783-E57AF3E92B53</title>
    <desc>Created with sketchtool.</desc>
    <defs></defs>
    <g id="style-guide" stroke="none" stroke-width="1" fill="none" fill-rule="evenodd">
        <g id="icons" transform="translate(-639.000000, -33.000000)" fill="#2E4676" fill-rule="nonzero">
            <g id="ico_paperclip" transform="translate(640.000000, 34.000000)">
                <path d="M11.3094566,5.44376661 C11.5047188,5.24850446 11.8213012,5.24850446 12.0165634,5.44376661 C12.2118255,5.63902876 12.2118255,5.95561124 12.0165634,6.15087339 L6.50256339,11.6648734 C5.73325544,12.4341813 4.68992059,12.86636 3.602004,12.86636 C2.51407381,12.86636 1.47070755,12.4341713 0.70145689,11.6648797 C-0.0678182714,10.8956318 -0.5,9.85225255 -0.5,8.76432 C-0.5,7.67641211 -0.0678363669,6.63309458 0.701451186,5.86376603 L6.21546603,0.349769189 C6.75960363,-0.194339417 7.49752077,-0.5 8.26701,-0.5 C9.03645965,-0.5 9.7744308,-0.194324983 10.318554,0.349769189 C10.8626723,0.893858535 11.16833,1.63182106 11.16833,2.401332 C11.16833,3.17084294 10.8626723,3.90880547 10.3183705,4.45307817 L4.79856681,9.96686397 C4.47963561,10.2858122 4.047063,10.46498 3.596004,10.46498 C3.144945,10.46498 2.71237239,10.2858122 2.39344119,9.96686397 C2.07451354,9.64791933 1.895338,9.21534756 1.895338,8.76432 C1.895338,8.31329244 2.07451354,7.88072067 2.39365964,7.56155771 L7.48766564,2.47356971 C7.68304316,2.278423 7.99962559,2.27861012 8.19477229,2.47398764 C8.389919,2.66936516 8.38973188,2.98594759 8.19435436,3.18109429 L3.10056681,8.26886397 C2.96916141,8.40027638 2.895338,8.57850339 2.895338,8.76432 C2.895338,8.95013661 2.96916141,9.12836362 3.10056681,9.25977603 C3.23195189,9.39116811 3.41015911,9.46498 3.596004,9.46498 C3.78184889,9.46498 3.96005611,9.39116811 4.09164349,9.25957383 L9.61146603,3.74576919 C9.96802825,3.38922597 10.16833,2.90562883 10.16833,2.401332 C10.16833,1.89703517 9.96802825,1.41343803 9.61146603,1.05689481 C9.2548751,0.700322882 8.7712487,0.5 8.26701,0.5 C7.76273502,0.5 7.27916167,0.700306111 6.92256281,1.05688597 L1.40856681,6.57086397 C0.826809187,7.1526526 0.5,7.94162633 0.5,8.76432 C0.5,9.58703314 0.826822296,10.3760522 1.40856681,10.957776 C1.99029441,11.5395346 2.77929833,11.86636 3.602004,11.86636 C4.42469962,11.86636 5.21368187,11.5395413 5.79545661,10.9577666 L11.3094566,5.44376661 Z" id="Shape"></path>
            </g>
        </g>
    </g>
</svg>