<?xml version="1.0" encoding="UTF-8"?>
<svg width="23px" height="17px" viewBox="0 0 23 17" version="1.1" xmlns="http://www.w3.org/2000/svg" xmlns:xlink="http://www.w3.org/1999/xlink">
    <!-- Generator: sketchtool 51.3 (57544) - http://www.bohemiancoding.com/sketch -->
    <title>DC68FE60-C6C0-4848-A83F-B2EDA4E70BE1</title>
    <desc>Created with sketchtool.</desc>
    <defs></defs>
    <g id="style-guide" stroke="none" stroke-width="1" fill="none" fill-rule="evenodd">
        <g id="icons" transform="translate(-323.000000, -33.000000)" fill="#2E4676" fill-rule="nonzero">
            <g id="ico_shipping" transform="translate(323.000000, 33.000000)">
                <polygon id="Path-8" points="19.000738 4.77062999 13.9337133 4.77062999 13.9337133 2.77062999 20.0867938 2.77062999 22.9048549 7.11112311 22.9048549 14.1983141 13.9337133 14.1983141 13.9337133 12.1983141 20.9048549 12.1983141 20.9048549 7.7034288"></polygon>
                <path d="M2,2 L2,11.6291038 L12.3673469,11.6291038 L12.3673469,2 L2,2 Z M2,0 L12.3673469,0 C13.4719164,7.78148667e-16 14.3673469,0.8954305 14.3673469,2 L14.3673469,11.6291038 C14.3673469,12.7336733 13.4719164,13.6291038 12.3673469,13.6291038 L2,13.6291038 C0.8954305,13.6291038 -9.74952274e-16,12.7336733 -1.11022302e-15,11.6291038 L-2.22044605e-16,2 C-3.57315355e-16,0.8954305 0.8954305,2.02906125e-16 2,0 Z" id="Rectangle-5"></path>
                <path d="M4.26530612,16.4463177 C2.59452486,16.4463177 1.24489796,15.0806873 1.24489796,13.4019521 C1.24489796,11.7232169 2.59452486,10.3575865 4.26530612,10.3575865 C5.93608738,10.3575865 7.28571429,11.7232169 7.28571429,13.4019521 C7.28571429,15.0806873 5.93608738,16.4463177 4.26530612,16.4463177 Z M4.26530612,14.4463177 C4.8262061,14.4463177 5.28571429,13.9813608 5.28571429,13.4019521 C5.28571429,12.8225434 4.8262061,12.3575865 4.26530612,12.3575865 C3.70440615,12.3575865 3.24489796,12.8225434 3.24489796,13.4019521 C3.24489796,13.9813608 3.70440615,14.4463177 4.26530612,14.4463177 Z" id="Oval-2"></path>
                <path d="M18.1836735,16.4463177 C16.5128922,16.4463177 15.1632653,15.0806873 15.1632653,13.4019521 C15.1632653,11.7232169 16.5128922,10.3575865 18.1836735,10.3575865 C19.8544547,10.3575865 21.2040816,11.7232169 21.2040816,13.4019521 C21.2040816,15.0806873 19.8544547,16.4463177 18.1836735,16.4463177 Z M18.1836735,14.4463177 C18.7445734,14.4463177 19.2040816,13.9813608 19.2040816,13.4019521 C19.2040816,12.8225434 18.7445734,12.3575865 18.1836735,12.3575865 C17.6227735,12.3575865 17.1632653,12.8225434 17.1632653,13.4019521 C17.1632653,13.9813608 17.6227735,14.4463177 18.1836735,14.4463177 Z" id="Oval-2"></path>
            </g>
        </g>
    </g>
</svg>