<?xml version="1.0" encoding="UTF-8"?>
<svg width="21px" height="23px" viewBox="0 0 21 23" version="1.1" xmlns="http://www.w3.org/2000/svg" xmlns:xlink="http://www.w3.org/1999/xlink">
    <!-- Generator: sketchtool 51.3 (57544) - http://www.bohemiancoding.com/sketch -->
    <title>79683CBC-21B3-4695-89C2-420B3DAE8357</title>
    <desc>Created with sketchtool.</desc>
    <defs></defs>
    <g id="style-guide" stroke="none" stroke-width="1" fill="none" fill-rule="evenodd">
        <g id="icons" transform="translate(-239.000000, -29.000000)" fill="#2E4676" fill-rule="nonzero">
            <g id="ico_glob" transform="translate(240.000000, 31.000000)">
                <path d="M9.5,20 C3.70101013,20 -1,15.2989899 -1,9.5 C-1,3.70101013 3.70101013,-1 9.5,-1 C15.2989899,-1 20,3.70101013 20,9.5 C20,15.2989899 15.2989899,20 9.5,20 Z M9.5,18 C14.1944204,18 18,14.1944204 18,9.5 C18,4.80557963 14.1944204,1 9.5,1 C4.80557963,1 1,4.80557963 1,9.5 C1,14.1944204 4.80557963,18 9.5,18 Z" id="Oval"></path>
                <path d="M10.1869047,19.7267475 L9.5,20.3759938 L8.81309527,19.7267475 C5.62175378,16.7103661 4,13.2866636 4,9.5 C4,5.71333638 5.62175378,2.28963395 8.81309527,-0.726747472 L9.5,-1.37599378 L10.1869047,-0.726747472 C13.3782462,2.28963395 15,5.71333638 15,9.5 C15,13.2866636 13.3782462,16.7103661 10.1869047,19.7267475 Z M13,9.5 C13,6.5645128 11.8466447,3.87949858 9.5,1.41099918 C7.15335534,3.87949858 6,6.5645128 6,9.5 C6,12.4354872 7.15335534,15.1205014 9.5,17.5890008 C11.8466447,15.1205014 13,12.4354872 13,9.5 Z" id="Oval"></path>
                <polygon id="Line" points="-1 10 -1 8 19 8 19 10"></polygon>
            </g>
        </g>
    </g>
</svg>