<?xml version="1.0" encoding="UTF-8"?>
<svg width="24px" height="26px" viewBox="0 0 24 26" version="1.1" xmlns="http://www.w3.org/2000/svg" xmlns:xlink="http://www.w3.org/1999/xlink">
    <!-- Generator: sketchtool 51.3 (57544) - http://www.bohemiancoding.com/sketch -->
    <title>44DA39EC-BDFF-4107-82EF-49C3B22E335B</title>
    <desc>Created with sketchtool.</desc>
    <defs></defs>
    <g id="style-guide" stroke="none" stroke-width="1" fill="none" fill-rule="evenodd">
        <g id="icons" transform="translate(-279.000000, -28.000000)" fill="#2E4676" fill-rule="nonzero">
            <g id="ico_glob_2" transform="translate(280.000000, 30.000000)">
                <path d="M11,23 C4.372583,23 -1,17.627417 -1,11 C-1,4.372583 4.372583,-1 11,-1 C17.627417,-1 23,4.372583 23,11 C23,17.627417 17.627417,23 11,23 Z M11,21 C16.5228475,21 21,16.5228475 21,11 C21,5.4771525 16.5228475,1 11,1 C5.4771525,1 1,5.4771525 1,11 C1,16.5228475 5.4771525,21 11,21 Z" id="Oval"></path>
                <path d="M11.6544624,22.7560945 L11,23.322586 L10.3455376,22.7560945 C6.34481753,19.29314 4.31034483,15.3598261 4.31034483,11 C4.31034483,6.64017389 6.34481753,2.70686 10.3455376,-0.756094524 L11,-1.32258596 L11.6544624,-0.756094524 C15.6551825,2.70686 17.6896552,6.64017389 17.6896552,11 C17.6896552,15.3598261 15.6551825,19.29314 11.6544624,22.7560945 Z M15.6896552,11 C15.6896552,7.49474969 14.1451542,4.28839169 11,1.34483813 C7.85484585,4.28839169 6.31034483,7.49474969 6.31034483,11 C6.31034483,14.5052503 7.85484585,17.7116083 11,20.6551619 C14.1451542,17.7116083 15.6896552,14.5052503 15.6896552,11 Z" id="Oval"></path>
                <polygon id="Line" points="12 22.6206897 10 22.6206897 10 -0.620689655 12 -0.620689655"></polygon>
                <polygon id="Line" points="-0.620689655 12 -0.620689655 10 22.6206897 10 22.6206897 12"></polygon>
            </g>
        </g>
    </g>
</svg>