<?xml version="1.0" encoding="UTF-8"?>
<svg width="22px" height="22px" viewBox="0 0 22 22" version="1.1" xmlns="http://www.w3.org/2000/svg" xmlns:xlink="http://www.w3.org/1999/xlink">
    <!-- Generator: sketchtool 51.3 (57544) - http://www.bohemiancoding.com/sketch -->
    <title>CB53798A-B1D5-4B0A-B93D-E1231A0E35D2</title>
    <desc>Created with sketchtool.</desc>
    <defs></defs>
    <g id="style-guide" stroke="none" stroke-width="1" fill="none" fill-rule="evenodd">
        <g id="icons" transform="translate(-841.000000, -30.000000)" fill="#2E4676" fill-rule="nonzero">
            <g id="instagram_ico" transform="translate(842.000000, 31.000000)">
                <path d="M15,-1 C18.313691,-1 21,1.68630154 21,5 L21,15 C21,18.3136847 18.3136847,21 15,21 L5,21 C1.68630154,21 -1,18.313691 -1,15 L-1,5 C-1,1.68629525 1.68629525,-1 5,-1 L15,-1 Z M15,1 L5,1 C2.79086475,1 1,2.79086475 1,5 L1,15 C1,17.2091228 2.79087228,19 5,19 L15,19 C17.2091153,19 19,17.2091153 19,15 L19,5 C19,2.79087228 17.2091228,1 15,1 Z" id="Shape"></path>
                <path d="M12.1642641,7.83568765 C11.7092195,7.38060557 11.1197263,7.08390614 10.4830105,6.98948258 C9.85886377,6.89692557 9.22135977,7.00354369 8.66126555,7.2941657 C8.10116152,7.58478889 7.64696486,8.04462542 7.36326066,8.60829871 C7.07957626,9.17190264 6.98082468,9.81068104 7.0810697,10.4336312 C7.18131915,11.0566372 7.47544166,11.6321256 7.9216449,12.0783813 C8.36787,12.5245914 8.94335369,12.8187019 9.5664036,12.9189059 C10.1893545,13.019169 10.8280543,12.9204304 11.3917111,12.6367644 C11.9554136,12.3530382 12.4152431,11.8988464 12.7058768,11.3387296 C12.9964711,10.7786887 13.1030721,10.141191 13.0105177,9.5169914 C12.9160906,8.88032217 12.6193842,8.29083777 12.1642641,7.83568765 Z M14.9888803,9.22359509 C15.143142,10.2639237 14.9654777,11.3264099 14.4811232,12.2598704 C13.9967388,13.1933884 13.2303514,13.9503795 12.2908418,14.4232593 C11.3514064,14.8960397 10.2868916,15.0606063 9.24871225,14.8935127 C8.21037002,14.726518 7.25115862,14.2362972 6.50740162,13.4925652 C5.76374565,12.7488217 5.27354901,11.7896892 5.10647144,10.7513759 C4.9393912,9.71309337 5.1039754,8.6484742 5.57678973,7.70912039 C6.04961527,6.76969432 6.80661874,6.00329097 7.74012959,5.51891683 C8.67362145,5.03454605 9.73611531,4.85685132 10.7763935,5.01111801 C11.8375689,5.16848798 12.8200486,5.66298252 13.5785301,6.42152652 C14.3370293,7.18007576 14.8315087,8.16249292 14.9888803,9.22359509 Z" id="Shape"></path>
                <path d="M15.5,5.5 C14.9477153,5.5 14.5,5.05228475 14.5,4.5 C14.5,3.94771525 14.9477153,3.5 15.5,3.5 L15.51,3.5 C16.0622847,3.5 16.51,3.94771525 16.51,4.5 C16.51,5.05228475 16.0622847,5.5 15.51,5.5 L15.5,5.5 Z" id="Shape"></path>
            </g>
        </g>
    </g>
</svg>