<?xml version="1.0" encoding="UTF-8"?>
<svg width="339px" height="66px" viewBox="0 0 339 66" version="1.1" xmlns="http://www.w3.org/2000/svg" xmlns:xlink="http://www.w3.org/1999/xlink">
    <!-- Generator: sketchtool 51.3 (57544) - http://www.bohemiancoding.com/sketch -->
    <title>60657F33-97EA-423F-90E1-606FE931E3E5</title>
    <desc>Created with sketchtool.</desc>
    <defs></defs>
    <g id="style-guide" stroke="none" stroke-width="1" fill="none" fill-rule="evenodd">
        <g id="icons" transform="translate(-354.000000, -251.000000)">
            <g id="moon_list_illu" transform="translate(354.000000, 252.000000)">
                <g id="moon">
                    <ellipse id="Oval" fill="#92A8D5" fill-rule="nonzero" cx="170.007485" cy="32" rx="23.8517964" ry="23.8730159"></ellipse>
                    <path d="M236.590444,8.12698413 C239.421798,8.12698413 240.547904,18.8253968 240.547904,32 C240.547904,45.1746032 239.421798,55.8730159 236.590444,55.8730159 C223.945707,54.9612643 214.158683,44.5731195 214.158683,32.0634921 C214.158683,19.5538646 223.945707,9.16571978 236.590444,8.25396825 L236.590444,8.12698413 Z" id="Shape" fill="#92A8D5" fill-rule="nonzero"></path>
                    <path d="M317.547696,31.9206877 C317.468135,19.4252264 326.855489,9.01329509 339,8.12698413 L337.547178,8.12698413 C324.830842,8.23170896 314.590572,18.8692385 314.642052,31.9206877 C314.576154,38.2169271 316.954354,44.2812434 321.251722,48.7750837 C325.549091,53.2689239 331.412297,55.822804 337.547178,55.8730159 L339,55.8730159 C326.795416,54.9831548 317.385902,44.4770684 317.547696,31.9206877 Z" id="Shape" fill="#92A8D5" fill-rule="nonzero"></path>
                    <path d="M285.634465,8.12698413 C288.252446,8.1325296 290.851483,8.57231979 293.326347,9.42854825 C283.698072,12.7326457 277.22904,21.809653 277.22904,32.0154475 C277.22904,42.221242 283.698072,51.2982493 293.326347,54.6023468 C284.392083,57.6476514 274.507603,55.1126807 268.127757,48.1399238 C261.747911,41.1671669 260.077312,31.0731882 263.868885,22.4072553 C267.660457,13.7413225 276.198293,8.1396977 285.634465,8.12698413 Z" id="Shape" fill="#92A8D5" fill-rule="nonzero"></path>
                    <path d="M170.007485,64 C187.664888,64 201.979042,49.673112 201.979042,32 C201.979042,14.326888 187.664888,0 170.007485,0 C152.350082,0 138.035928,14.326888 138.035928,32 C138.035928,49.673112 152.350082,64 170.007485,64 Z" id="Oval" stroke="#FFFFFF" stroke-width="2" stroke-linecap="round" stroke-dasharray="2,5" transform="translate(170.007485, 32.000000) scale(-1, 1) translate(-170.007485, -32.000000) "></path>
                    <path d="M120.883857,8.12698413 C123.715211,8.12698413 124.841317,18.8253968 124.841317,32 C124.841317,45.1746032 123.715211,55.8730159 120.883857,55.8730159 C108.23912,54.9612643 98.4520958,44.5731195 98.4520958,32.0634921 C98.4520958,19.5538646 108.23912,9.16571978 120.883857,8.25396825 L120.883857,8.12698413 Z" id="Shape" fill="#92A8D5" fill-rule="nonzero" transform="translate(111.646707, 32.000000) scale(-1, 1) translate(-111.646707, -32.000000) "></path>
                    <path d="M2.90697737,31.9206877 C2.82741617,19.4252264 12.2147701,9.01329509 24.3592814,8.12698413 L22.9064597,8.12698413 C10.1901234,8.23170896 -0.050146771,18.8692385 0.00133387793,31.9206877 C-0.0645648256,38.2169271 2.31363542,44.2812434 6.61100374,48.7750837 C10.9083721,53.2689239 16.7715783,55.822804 22.9064597,55.8730159 L24.3592814,55.8730159 C12.1546977,54.9831548 2.74518393,44.4770684 2.90697737,31.9206877 Z" id="Shape" fill="#92A8D5" fill-rule="nonzero" transform="translate(12.179641, 32.000000) scale(-1, 1) translate(-12.179641, -32.000000) "></path>
                    <path d="M69.4458426,8.12698413 C72.063823,8.1325296 74.6628607,8.57231979 77.1377246,9.42854825 C67.5094491,12.7326457 61.0404169,21.809653 61.0404169,32.0154475 C61.0404169,42.221242 67.5094491,51.2982493 77.1377246,54.6023468 C68.2034599,57.6476514 58.3189804,55.1126807 51.9391344,48.1399238 C45.5592884,41.1671669 43.8886894,31.0731882 47.6802618,22.4072553 C51.4718343,13.7413225 60.0096705,8.1396977 69.4458426,8.12698413 Z" id="Shape" fill="#92A8D5" fill-rule="nonzero" transform="translate(61.405689, 32.000000) scale(-1, 1) translate(-61.405689, -32.000000) "></path>
                </g>
            </g>
        </g>
    </g>
</svg>