<?xml version="1.0" encoding="UTF-8"?>
<svg width="112px" height="107px" viewBox="0 0 112 107" version="1.1" xmlns="http://www.w3.org/2000/svg" xmlns:xlink="http://www.w3.org/1999/xlink">
    <!-- Generator: sketchtool 51.3 (57544) - http://www.bohemiancoding.com/sketch -->
    <title>07846D42-B4FA-45A0-A129-85ABA556DC5C</title>
    <desc>Created with sketchtool.</desc>
    <defs></defs>
    <g id="style-guide" stroke="none" stroke-width="1" fill="none" fill-rule="evenodd">
        <g id="icons" transform="translate(-311.000000, -87.000000)" fill="#D0D9E5" fill-rule="nonzero">
            <g id="moon_n_stars_ico" transform="translate(314.000000, 86.000000)">
                <path d="M73.7676368,9.00736496 C52.7808163,9.00736496 35.7676368,26.0205445 35.7676368,47.007365 C35.7676368,67.9941855 52.7808163,85.007365 73.7676368,85.007365 C77.5589956,85.007365 81.2716052,84.4523309 84.818072,83.3761476 C71.4562673,76.4105666 62.7676368,62.5139609 62.7676368,47.007365 C62.7676368,31.5007691 71.4562673,17.6041633 84.818072,10.6385823 C81.2716052,9.56239901 77.5589956,9.00736496 73.7676368,9.00736496 Z M89.3376266,11.8425511 C75.1957144,17.6521639 65.7676368,31.4560764 65.7676368,47.007365 C65.7676368,62.5586536 75.1957144,76.362566 89.3376266,82.1721789 L92.7150764,83.5596628 L89.3376266,84.9471468 C84.4401299,86.9590783 79.1755957,88.007365 73.7676368,88.007365 C51.1239621,88.007365 32.7676368,69.6510397 32.7676368,47.007365 C32.7676368,24.3636902 51.1239621,6.00736496 73.7676368,6.00736496 C79.1755957,6.00736496 84.4401299,7.05565158 89.3376266,9.06758316 L92.7150764,10.4550671 L89.3376266,11.8425511 Z" id="Combined-Shape" transform="translate(62.741357, 47.007365) rotate(-23.000000) translate(-62.741357, -47.007365) "></path>
                <path d="M99,27.9369839 L104.567736,29.567736 L102.936984,24 L104.567736,18.432264 L99,20.0630161 L93.432264,18.432264 L95.0630161,24 L93.432264,29.567736 L99,27.9369839 Z M89.0113868,33.9886132 L91.9369839,24 L89.0113868,14.0113868 L99,16.9369839 L108.988613,14.0113868 L106.063016,24 L108.988613,33.9886132 L99,31.0630161 L89.0113868,33.9886132 Z" id="Star-2"></path>
                <path d="M33.0262794,97.9632633 L38.5940154,99.5940154 L36.9632633,94.0262794 L38.5940154,88.4585435 L33.0262794,90.0892956 L27.4585435,88.4585435 L29.0892956,94.0262794 L27.4585435,99.5940154 L33.0262794,97.9632633 Z M33.0262794,101.089296 L23.0376662,104.014893 L25.9632633,94.0262794 L23.0376662,84.0376662 L33.0262794,86.9632633 L43.0148927,84.0376662 L40.0892956,94.0262794 L43.0148927,104.014893 L33.0262794,101.089296 Z" id="Star-2" transform="translate(33.026279, 94.026279) rotate(-60.000000) translate(-33.026279, -94.026279) "></path>
                <path d="M4.12959829,20.1952044 L7.16240135,19.306917 L10.1952044,20.1952044 L9.30691695,17.1624013 L10.1952044,14.1295983 L7.16240135,15.0178857 L4.12959829,14.1295983 L5.01788574,17.1624013 L4.12959829,20.1952044 Z M-0.29127898,24.6160817 L1.89185344,17.1624013 L-0.29127898,9.70872102 L7.16240135,11.8918534 L14.6160817,9.70872102 L12.4329493,17.1624013 L14.6160817,24.6160817 L7.16240135,22.4329493 L-0.29127898,24.6160817 Z" id="Star-2" transform="translate(7.162401, 17.162401) rotate(-60.000000) translate(-7.162401, -17.162401) "></path>
            </g>
        </g>
    </g>
</svg>