<?xml version="1.0" encoding="UTF-8"?>
<svg width="20px" height="20px" viewBox="0 0 20 20" version="1.1" xmlns="http://www.w3.org/2000/svg" xmlns:xlink="http://www.w3.org/1999/xlink">
    <!-- Generator: sketchtool 51.3 (57544) - http://www.bohemiancoding.com/sketch -->
    <title>FE443A09-BA08-4CF0-873C-CD61F4303046</title>
    <desc>Created with sketchtool.</desc>
    <defs></defs>
    <g id="style-guide" stroke="none" stroke-width="1" fill="none" fill-rule="evenodd">
        <g id="icons" transform="translate(-991.000000, -31.000000)" fill="#2E4676" fill-rule="nonzero">
            <g id="pinterest_ico" transform="translate(991.000000, 31.000000)">
                <path d="M10,5.92118946e-15 C4.47833333,5.92118946e-15 0,4.47666667 0,10 C0,14.2366667 2.635,17.8533333 6.35333333,19.3116667 C6.26666667,18.52 6.18666667,17.3066667 6.39,16.4433333 C6.57,15.6633333 7.56166667,11.4733333 7.56166667,11.4733333 C7.56166667,11.4733333 7.26,10.875 7.26,9.98833333 C7.26,8.59833333 8.06833333,7.56 9.07166667,7.56 C9.925,7.56 10.3366667,8.20166667 10.3366667,8.96833333 C10.3366667,9.82833333 9.79,11.11 9.50833333,12.2983333 C9.27166667,13.295 10.0083333,14.105 10.99,14.105 C12.7666667,14.105 14.135,12.2316667 14.135,9.52666667 C14.135,7.13166667 12.415,5.45833333 9.95666667,5.45833333 C7.11166667,5.45833333 5.44166667,7.59166667 5.44166667,9.79833333 C5.44166667,10.6583333 5.77333333,11.5783333 6.185,12.0783333 C6.26666667,12.1783333 6.27833333,12.265 6.25333333,12.3666667 L5.97833333,13.5 C5.93333333,13.6833333 5.83166667,13.7233333 5.64333333,13.635 C4.39333333,13.0533333 3.61166667,11.2283333 3.61166667,9.76 C3.61166667,6.605 5.90333333,3.71 10.2183333,3.71 C13.6883333,3.71 16.385,6.18 16.385,9.485 C16.385,12.9316667 14.2116667,15.705 11.195,15.705 C10.1816667,15.705 9.23,15.18 8.90333333,14.5566667 L8.28,16.9333333 C8.055,17.8016667 7.445,18.8916667 7.03666667,19.555 C7.97333333,19.8433333 8.97,20 10,20 C15.5216667,20 20,15.5216667 20,10 C20,4.47666667 15.5216667,0 10,0 Z" id="Shape"></path>
            </g>
        </g>
    </g>
</svg>