<?xml version="1.0" encoding="UTF-8"?>
<svg width="24px" height="24px" viewBox="0 0 24 24" version="1.1" xmlns="http://www.w3.org/2000/svg" xmlns:xlink="http://www.w3.org/1999/xlink">
    <!-- Generator: sketchtool 51.3 (57544) - http://www.bohemiancoding.com/sketch -->
    <title>DE6E5FCF-FCED-4667-A134-92BFB1248300</title>
    <desc>Created with sketchtool.</desc>
    <defs></defs>
    <g id="style-guide" stroke="none" stroke-width="1" fill="none" fill-rule="evenodd">
        <g id="icons" transform="translate(-336.000000, -370.000000)" fill="#2E4676" fill-rule="nonzero">
            <path d="M347.528625,370.001319 C350.604116,369.958423 353.560289,371.189949 355.695684,373.403672 C357.915397,375.533746 359.154628,378.487459 359.119213,381.563672 C359.164656,384.639653 357.932725,387.596799 355.71686,389.730731 C353.553173,391.898498 350.616133,393.11668 347.553331,393.11668 C344.490529,393.11668 341.553489,391.898498 339.389801,389.730731 C337.180558,387.593402 335.954137,384.637218 336.001566,381.563672 C335.95023,378.498455 337.162877,375.547255 339.354507,373.403672 C341.490124,371.186 344.450203,369.953912 347.528625,370.001319 Z M347.528625,392.286025 C350.379041,392.323872 353.118991,391.184992 355.102743,389.13779 C357.159702,387.154296 358.302183,384.406718 358.258037,381.549555 C358.299372,378.694995 357.157182,375.950674 355.102743,373.968378 C353.096867,371.951438 350.369666,370.817399 347.525096,370.817399 C344.680525,370.817399 341.953324,371.951438 339.947449,373.968378 C337.896318,375.95237 336.756882,378.696211 336.799213,381.549555 C336.754075,384.4055 337.8938,387.152597 339.947449,389.13779 C341.932408,391.187499 344.675606,392.326667 347.528625,392.286025 Z" id="PL"></path>
        </g>
    </g>
</svg>