<?xml version="1.0" encoding="UTF-8"?>
<svg width="43px" height="24px" viewBox="0 0 43 24" version="1.1" xmlns="http://www.w3.org/2000/svg" xmlns:xlink="http://www.w3.org/1999/xlink">
    <!-- Generator: sketchtool 51.3 (57544) - http://www.bohemiancoding.com/sketch -->
    <title>E4C2B309-1B64-4DC1-BB9F-4403AEAFF387</title>
    <desc>Created with sketchtool.</desc>
    <defs></defs>
    <g id="style-guide" stroke="none" stroke-width="1" fill="none" fill-rule="evenodd">
        <g id="icons" transform="translate(-672.000000, -29.000000)" fill="#2E4676">
            <g id="point_transfer_ico" transform="translate(672.000000, 29.000000)">
                <path d="M22.6588926,6.48205154 C22.1726839,7.21554584 21.7806394,8.01688906 21.5,8.86884032 C20.1859198,4.87962092 16.4292457,2 12,2 C6.4771525,2 2,6.4771525 2,12 C2,17.5228475 6.4771525,22 12,22 C16.4292457,22 20.1859198,19.1203791 21.5,15.1311597 C21.7806394,15.9831109 22.1726839,16.7844542 22.6588926,17.5179485 C20.6612465,21.3689182 16.6378843,24 12,24 C5.372583,24 0,18.627417 0,12 C0,5.372583 5.372583,0 12,0 C16.6378843,0 20.6612465,2.63108182 22.6588926,6.48205154 Z" id="Oval" fill-rule="nonzero"></path>
                <path d="M31,24 C24.372583,24 19,18.627417 19,12 C19,5.372583 24.372583,0 31,0 C37.627417,0 43,5.372583 43,12 C43,18.627417 37.627417,24 31,24 Z M31,22 C36.5228475,22 41,17.5228475 41,12 C41,6.4771525 36.5228475,2 31,2 C25.4771525,2 21,6.4771525 21,12 C21,17.5228475 25.4771525,22 31,22 Z" id="Oval-Copy" fill-rule="nonzero"></path>
                <path d="M30.6213075,7 C30.1294322,7.77391852 29.8445384,8.69228995 29.8445384,9.67720191 C29.8445384,12.4374658 32.0821744,14.6751018 34.8424383,14.6751018 C34.9691253,14.6751018 35.0947114,14.6703883 35.2190308,14.6611269 C34.3324016,16.0561528 32.7732519,16.9818249 30.9978999,16.9818249 C28.237636,16.9818249 26,14.7441889 26,11.983925 C26,9.35034804 28.0369494,7.19252615 30.6213075,7 Z" id="Combined-Shape"></path>
                <path d="M16.12,14.326 C16.12,15.063337 15.8423361,15.6886641 15.287,16.202 C14.7316639,16.7153359 13.9266719,17.0139996 12.872,17.098 L12.872,18.68 L11.976,18.68 L11.976,17.098 C11.2946633,17.0606665 10.6483364,16.9323344 10.037,16.713 C9.42566361,16.4936656 8.93800182,16.2160017 8.574,15.88 L9.092,14.788 C9.42800168,15.0960015 9.8526641,15.3503323 10.366,15.551 C10.8793359,15.7516677 11.4159972,15.8706665 11.976,15.908 L11.976,12.66 C11.3226634,12.5013325 10.7790022,12.3286676 10.345,12.142 C9.91099783,11.9553324 9.54700147,11.6800018 9.253,11.316 C8.95899853,10.9519982 8.812,10.4760029 8.812,9.888 C8.812,9.15066298 9.08033065,8.5253359 9.617,8.012 C10.1536694,7.4986641 10.9399948,7.20000042 11.976,7.116 L11.976,5.52 L12.872,5.52 L12.872,7.102 C13.4040027,7.12066676 13.9196642,7.20466592 14.419,7.354 C14.9183358,7.50333408 15.3499982,7.70399874 15.714,7.956 L15.252,9.076 C14.4959962,8.59999762 13.7026708,8.3386669 12.872,8.292 L12.872,11.554 C13.5533367,11.7220008 14.1133311,11.8969991 14.552,12.079 C14.9906689,12.2610009 15.3616652,12.5316649 15.665,12.891 C15.9683349,13.2503351 16.12,13.7286637 16.12,14.326 Z M10.184,9.832 C10.184,10.2333353 10.3379985,10.5459989 10.646,10.77 C10.9540015,10.9940011 11.3973304,11.1806659 11.976,11.33 L11.976,8.306 C11.3786637,8.38066704 10.9306682,8.55566529 10.632,8.831 C10.3333318,9.10633471 10.184,9.43999804 10.184,9.832 Z M12.872,15.894 C13.4973365,15.8379997 13.9663318,15.6770013 14.279,15.411 C14.5916682,15.1449987 14.748,14.8113353 14.748,14.41 C14.748,13.9993313 14.5870016,13.6843344 14.265,13.465 C13.9429984,13.2456656 13.4786697,13.0520008 12.872,12.884 L12.872,15.894 Z" id="$"></path>
            </g>
        </g>
    </g>
</svg>