<?xml version="1.0" encoding="UTF-8"?>
<svg width="10px" height="15px" viewBox="0 0 10 15" version="1.1" xmlns="http://www.w3.org/2000/svg" xmlns:xlink="http://www.w3.org/1999/xlink">
    <!-- Generator: sketchtool 51.3 (57544) - http://www.bohemiancoding.com/sketch -->
    <title>45ACDE4A-3901-415C-99B1-286DB91A6D7C</title>
    <desc>Created with sketchtool.</desc>
    <defs></defs>
    <g id="style-guide" stroke="none" stroke-width="1" fill="none" fill-rule="evenodd">
        <g id="icons" transform="translate(-769.000000, -34.000000)" fill="#2E4676">
            <path d="M779,43.7021277 C779,44.5851108 778.67218,45.348401 778.016529,45.9920213 C777.360878,46.6356415 776.410475,47.0478714 775.165289,47.2287234 L775.165289,49 L773.181818,49 L773.181818,47.2925532 C772.355368,47.2393614 771.573006,47.1037245 770.834711,46.8856383 C770.096415,46.6675521 769.484851,46.3989378 769,46.0797872 L770.07438,43.75 C770.592289,44.0797889 771.192834,44.3457437 771.876033,44.5478723 C772.559232,44.750001 773.231402,44.8510638 773.892562,44.8510638 C775.148767,44.8510638 775.77686,44.5478754 775.77686,43.9414894 C775.77686,43.6223388 775.597798,43.3856391 775.239669,43.231383 C774.881541,43.0771269 774.305789,42.9148945 773.512397,42.7446809 C772.641869,42.5638289 771.914603,42.3696819 771.330579,42.162234 C770.746554,41.9547862 770.245181,41.6223427 769.826446,41.1648936 C769.407711,40.7074445 769.198347,40.0904294 769.198347,39.3138298 C769.198347,38.3989316 769.539941,37.614365 770.22314,36.9601064 C770.90634,36.3058478 771.892556,35.9042561 773.181818,35.7553191 L773.181818,34 L775.165289,34 L775.165289,35.7234043 C775.793392,35.776596 776.396691,35.8829779 776.975207,36.0425532 C777.553722,36.2021285 778.068868,36.4095732 778.520661,36.6648936 L777.512397,39.0106383 C776.410463,38.4361673 775.341603,38.1489362 774.305785,38.1489362 C773.655644,38.1489362 773.18182,38.2420203 772.884298,38.4281915 C772.586775,38.6143626 772.438017,38.8563815 772.438017,39.1542553 C772.438017,39.4521291 772.614323,39.6755312 772.966942,39.8244681 C773.319561,39.973405 773.887048,40.1276588 774.669421,40.287234 C775.550969,40.468086 776.280989,40.662233 776.859504,40.8696809 C777.438019,41.0771287 777.939392,41.4069126 778.363636,41.8590426 C778.787881,42.3111725 779,42.925528 779,43.7021277 Z" id="money_ico"></path>
        </g>
    </g>
</svg>