<?xml version="1.0" encoding="UTF-8"?>
<svg width="24px" height="24px" viewBox="0 0 24 24" version="1.1" xmlns="http://www.w3.org/2000/svg" xmlns:xlink="http://www.w3.org/1999/xlink">
    <!-- Generator: sketchtool 51.3 (57544) - http://www.bohemiancoding.com/sketch -->
    <title>B215D076-B9FE-49D7-B38B-3C7DE5A140A1</title>
    <desc>Created with sketchtool.</desc>
    <defs></defs>
    <g id="style-guide" stroke="none" stroke-width="1" fill="none" fill-rule="evenodd">
        <g id="icons" transform="translate(-798.000000, -29.000000)" fill="#2E4676">
            <g id="question_ico" transform="translate(799.000000, 30.000000)">
                <path d="M11,23 C4.372583,23 -1,17.627417 -1,11 C-1,4.372583 4.372583,-1 11,-1 C17.627417,-1 23,4.372583 23,11 C23,17.627417 17.627417,23 11,23 Z M11,21 C16.5228475,21 21,16.5228475 21,11 C21,5.4771525 16.5228475,1 11,1 C5.4771525,1 1,5.4771525 1,11 C1,16.5228475 5.4771525,21 11,21 Z" id="Oval-3" fill-rule="nonzero"></path>
                <path d="M9.64293855,12.9288827 C9.64293855,12.3467122 9.77448472,11.8653092 10.037581,11.4846592 C10.3006773,11.1040093 10.6841204,10.6841811 11.1879218,10.225162 C11.5573761,9.88929441 11.8288651,9.60661009 12.0023966,9.37710056 C12.1759282,9.14759103 12.2626927,8.88729754 12.2626927,8.59621229 C12.2626927,8.18197558 12.0975603,7.85450958 11.7672905,7.61380447 C11.4370207,7.37309936 10.9976005,7.2527486 10.4490168,7.2527486 C9.92282418,7.2527486 9.45541545,7.36190394 9.04677654,7.58021788 C8.63813762,7.79853182 8.29387849,8.10360698 8.01398883,8.49545251 L5.982,7.30312849 C6.45221464,6.58661094 7.08755466,6.03243771 7.88803911,5.64059218 C8.68852356,5.24874664 9.6373353,5.05282682 10.7345028,5.05282682 C12.0219953,5.05282682 13.0547726,5.32711458 13.8328659,5.87569832 C14.6109592,6.42428207 15,7.18557055 15,8.15958659 C15,8.61860565 14.9244309,9.02164072 14.7732905,9.36870391 C14.6221501,9.7157671 14.4374257,10.0096468 14.2191117,10.250352 C14.0007978,10.4910571 13.7181135,10.7681437 13.3710503,11.0816201 C12.9568136,11.4510745 12.6545373,11.7617473 12.4642123,12.013648 C12.2738873,12.2655487 12.1787263,12.5706239 12.1787263,12.9288827 L9.64293855,12.9288827 Z M10.9192291,17.144 C10.46021,17.144 10.0767669,16.9956607 9.76888827,16.6989777 C9.46100963,16.4022946 9.30707263,16.0412424 9.30707263,15.6158101 C9.30707263,15.1903778 9.45821078,14.8349232 9.76049162,14.5494358 C10.0627725,14.2639483 10.4490144,14.1212067 10.9192291,14.1212067 C11.3894437,14.1212067 11.7756856,14.2639483 12.0779665,14.5494358 C12.3802473,14.8349232 12.5313855,15.1903778 12.5313855,15.6158101 C12.5313855,16.0412424 12.3774485,16.4022946 12.0695698,16.6989777 C11.7616912,16.9956607 11.3782481,17.144 10.9192291,17.144 Z" id="?"></path>
            </g>
        </g>
    </g>
</svg>