<?xml version="1.0" encoding="UTF-8"?>
<svg width="24px" height="19px" viewBox="0 0 24 19" version="1.1" xmlns="http://www.w3.org/2000/svg" xmlns:xlink="http://www.w3.org/1999/xlink">
    <!-- Generator: sketchtool 51.3 (57544) - http://www.bohemiancoding.com/sketch -->
    <title>5FF9A943-E5EC-465D-9D1C-9D9EF2F10457</title>
    <desc>Created with sketchtool.</desc>
    <defs></defs>
    <g id="style-guide" stroke="none" stroke-width="1" fill="none" fill-rule="evenodd">
        <g id="icons" transform="translate(-994.000000, -118.000000)" fill="#EBDFD5">
            <path d="M1002.18361,127.153846 C1003.75738,128.12821 1004.54426,129.615375 1004.54426,131.615385 C1004.54426,133.205136 1004.04591,134.499995 1003.04918,135.5 C1002.05245,136.500005 1000.79345,137 999.272131,137 C997.803271,137 996.557382,136.512825 995.534426,135.538462 C994.51147,134.564098 994,133.256418 994,131.615385 C994,130.84615 994.118032,130.153849 994.354098,129.538462 C994.590165,128.923074 994.94426,128.179492 995.416393,127.307692 L1000.37377,118 L1005.48852,118 L1002.18361,127.153846 Z M1014.69508,127.153846 C1016.26886,128.12821 1017.05574,129.615375 1017.05574,131.615385 C1017.05574,133.205136 1016.55738,134.499995 1015.56066,135.5 C1014.56393,136.500005 1013.30493,137 1011.78361,137 C1010.31475,137 1009.06886,136.512825 1008.0459,135.538462 C1007.02295,134.564098 1006.51148,133.256418 1006.51148,131.615385 C1006.51148,130.84615 1006.62951,130.153849 1006.86557,129.538462 C1007.10164,128.923074 1007.45574,128.179492 1007.92787,127.307692 L1012.88525,118 L1018,118 L1014.69508,127.153846 Z" id="quotes_ico"></path>
        </g>
    </g>
</svg>