<?xml version="1.0" encoding="UTF-8"?>
<svg width="11px" height="14px" viewBox="0 0 11 14" version="1.1" xmlns="http://www.w3.org/2000/svg" xmlns:xlink="http://www.w3.org/1999/xlink">
    <!-- Generator: sketchtool 51.3 (57544) - http://www.bohemiancoding.com/sketch -->
    <title>92FDB372-4DD3-43CA-B528-3831CDBAC31E</title>
    <desc>Created with sketchtool.</desc>
    <defs></defs>
    <g id="style-guide" stroke="none" stroke-width="1" fill="none" fill-rule="evenodd">
        <g id="icons" transform="translate(-795.000000, -169.000000)" fill="#2E4676">
            <g id="reward_ico" transform="translate(795.000000, 169.000000)">
                <path d="M5,8 C6.65685425,8 8,6.65685425 8,5 C8,3.34314575 6.65685425,2 5,2 C3.34314575,2 2,3.34314575 2,5 C2,6.65685425 3.34314575,8 5,8 Z M5,10 C2.23857625,10 0,7.76142375 0,5 C0,2.23857625 2.23857625,0 5,0 C7.76142375,0 10,2.23857625 10,5 C10,7.76142375 7.76142375,10 5,10 Z" id="Oval-7" fill-rule="nonzero"></path>
                <polygon id="Path-13" points="0 14 2.75390625 9 7.5 9 10.5029297 14 7.5 14 5.25146484 10.0966679 2.75390625 14"></polygon>
            </g>
        </g>
    </g>
</svg>