<?xml version="1.0" encoding="UTF-8"?>
<svg width="19px" height="23px" viewBox="0 0 19 23" version="1.1" xmlns="http://www.w3.org/2000/svg" xmlns:xlink="http://www.w3.org/1999/xlink">
    <!-- Generator: sketchtool 51.3 (57544) - http://www.bohemiancoding.com/sketch -->
    <title>A9023F92-ABA4-4358-96AF-0E22EDC1964C</title>
    <desc>Created with sketchtool.</desc>
    <defs></defs>
    <g id="style-guide" stroke="none" stroke-width="1" fill="none" fill-rule="evenodd">
        <g id="icons" transform="translate(-365.000000, -29.000000)" fill="#2E4676" fill-rule="nonzero">
            <g id="secure" transform="translate(366.000000, 31.000000)">
                <path d="M1.86103729,11.3458503 C2.67888616,13.9933466 4.98409437,16.425946 8.83305291,18.6172769 C12.6493006,16.6761329 14.9281682,14.2591894 15.742703,11.3696824 C16.0002752,10.4559622 16.0131748,8.30219884 15.7523407,5.01831879 L8.8053896,1.14493651 L1.85497391,5.02025052 C1.57369285,8.31064802 1.58727022,10.4596263 1.86103729,11.3458503 Z M8.8053896,-1.14493651 L17.656478,3.79012759 L17.7015857,4.31980643 C18.0275607,8.14758481 18.0275607,10.6356747 17.6676814,11.9123222 C16.6484863,15.527848 13.8120475,18.4383468 9.24048151,20.6474564 L8.77682546,20.871508 L8.32514328,20.624204 C3.78770257,18.1398743 0.974975073,15.253706 -0.0498633087,11.9361543 C-0.443254057,10.662691 -0.443254057,8.16891233 -0.0902474902,4.31348024 L-0.0421475919,3.78814755 L8.8053896,-1.14493651 Z" id="Path-3"></path>
                <polygon id="Path-4" points="12.0194848 6.31191742 13.4707496 7.68808258 7.96559705 13.4936604 4.2408779 9.1499717 5.7591221 7.84807518 8.04026232 10.5082927"></polygon>
            </g>
        </g>
    </g>
</svg>