<?xml version="1.0" encoding="UTF-8"?>
<svg width="20px" height="22px" viewBox="0 0 20 22" version="1.1" xmlns="http://www.w3.org/2000/svg" xmlns:xlink="http://www.w3.org/1999/xlink">
    <!-- Generator: sketchtool 51.3 (57544) - http://www.bohemiancoding.com/sketch -->
    <title>18565A0C-315D-469F-82B0-BD915855D68D</title>
    <desc>Created with sketchtool.</desc>
    <defs></defs>
    <g id="style-guide" stroke="none" stroke-width="1" fill="none" fill-rule="evenodd">
        <g id="icons" transform="translate(-957.000000, -30.000000)" fill="#2E4676" fill-rule="nonzero" stroke="#2E4676" stroke-width="0.5">
            <path d="M975.396964,35.393158 C973.236399,35.393158 971.478642,33.6852417 971.478642,31.5859375 C971.478642,31.2622986 971.208533,31 970.875606,31 L967.645908,31 C967.312825,31 967.042872,31.2622986 967.042872,31.5859375 L967.042872,44.4518433 C967.042872,45.6859741 966.009545,46.6900024 964.739243,46.6900024 C963.469098,46.6900024 962.43577,45.6859741 962.43577,44.4518433 C962.43577,43.2175598 963.469098,42.2135315 964.739243,42.2135315 C965.072326,42.2135315 965.342279,41.9512329 965.342279,41.627594 L965.342279,38.4894714 C965.342279,38.1659851 965.072326,37.9035339 964.739243,37.9035339 C961.02319,37.9035339 958,40.841156 958,44.4518433 C958,48.0625305 961.02319,51 964.739243,51 C968.455296,51 971.478642,48.0625305 971.478642,44.4518433 L971.478642,38.7568054 C972.678904,39.3786011 974.014378,39.7031555 975.396964,39.7031555 C975.730047,39.7031555 976,39.440857 976,39.117218 L976,35.9790955 C976,35.6556091 975.730047,35.393158 975.396964,35.393158 Z M974.793928,38.5070191 C973.506508,38.4029541 972.283947,37.9659424 971.227692,37.2277222 C971.044111,37.0992432 970.801954,37.081543 970.600471,37.1819458 C970.399145,37.2820434 970.27257,37.4834595 970.27257,37.7033386 L970.27257,44.4518433 C970.27257,47.4163208 967.790229,49.828125 964.739243,49.828125 C961.688257,49.828125 959.206072,47.4163208 959.206072,44.4518433 C959.206072,41.6852722 961.367894,39.3999634 964.136207,39.1071472 L964.136207,41.0920105 C962.48728,41.370636 961.229698,42.7710877 961.229698,44.4518433 C961.229698,46.3321838 962.804031,47.86203 964.739243,47.86203 C966.674612,47.86203 968.248944,46.3321838 968.248944,44.4518433 L968.248944,32.171875 L970.307747,32.171875 C970.583982,34.4500122 972.449311,36.2624512 974.793928,36.5308533 L974.793928,38.5070191 Z" id="Shape"></path>
        </g>
    </g>
</svg>