<?xml version="1.0" encoding="UTF-8"?>
<svg width="24px" height="20px" viewBox="0 0 24 20" version="1.1" xmlns="http://www.w3.org/2000/svg" xmlns:xlink="http://www.w3.org/1999/xlink">
    <!-- Generator: sketchtool 51.3 (57544) - http://www.bohemiancoding.com/sketch -->
    <title>67F6FF68-A775-46AF-9A9E-A862850C606E</title>
    <desc>Created with sketchtool.</desc>
    <defs></defs>
    <g id="style-guide" stroke="none" stroke-width="1" fill="none" fill-rule="evenodd">
        <g id="icons" transform="translate(-882.000000, -31.000000)" fill="#2E4676" fill-rule="nonzero">
            <g id="twitter_ico" transform="translate(883.000000, 32.000000)">
                <path d="M21.4235862,-0.807103965 C22.178633,-1.33970524 23.1902483,-0.65105765 22.9715982,0.246690566 C22.629028,1.65323837 21.9424146,2.94966132 20.9768625,4.0210548 C20.9917443,4.18305752 20.9994727,4.34609881 21,4.51005399 C21,16.3695003 9.55393483,22.4617645 -0.485642931,16.8842213 C-1.40631932,16.3727344 -1.01265144,14.9690064 0.0397328288,15.0108537 C1.72638491,15.0779221 3.39598848,14.742615 4.91416637,14.0433109 C2.71001873,12.6847096 1.29866392,10.8860439 0.606291297,8.75825976 C-0.108581695,6.56132796 -0.00423591183,4.25263136 0.592151613,2.06002789 C0.772555985,1.39677583 0.95591705,0.897026505 1.08618828,0.603915904 C1.40185943,-0.106344961 2.37166211,-0.200725112 2.81835656,0.435343157 C3.73390085,1.73902778 4.95763969,2.79604491 6.38060206,3.51226999 C7.51246579,4.08197171 8.74240031,4.42198125 9.99971885,4.51647315 C9.99233091,3.40677027 10.3220244,2.32066171 10.9455987,1.40216279 C11.5760311,0.473369846 12.4766595,-0.239422483 13.5255134,-0.63975829 C14.57431,-1.04006 15.720716,-1.10860192 16.8097253,-0.836111058 C17.6757398,-0.619427481 18.4722221,-0.195391607 19.1326038,0.395166024 C19.944789,0.0966408261 20.7151412,-0.30737501 21.4235862,-0.807103965 Z M19.1483342,2.49758384 C18.7717144,2.61099268 18.3635911,2.49309244 18.1054672,2.19631633 C17.6375864,1.65837376 17.0158362,1.27711314 16.3242644,1.10407648 C15.632704,0.931034908 14.9047092,0.974560639 14.2386961,1.22876265 C13.5726272,1.48299369 13.0007009,1.9356384 12.6003472,2.52546484 C12.1999458,3.11523944 11.9903553,3.81379209 12,4.54005399 L12,5.54005399 C12,6.08224154 11.567927,6.52566358 11.0259216,6.53971797 C9.10368394,6.58956227 7.19899801,6.1632487 5.48141569,5.29873686 C4.33561228,4.72201525 3.29682601,3.96223075 2.40410681,3.0531134 C2.0090283,4.75826905 1.98012023,6.51671422 2.50813788,8.13940633 C3.18516411,10.2200283 4.73501085,11.9090846 7.40613847,13.0962524 C8.12289681,13.4148117 8.21060597,14.3969176 7.56163964,14.837446 C6.44255056,15.5971009 5.21634022,16.1672196 3.93200561,16.5338105 C11.6111576,18.554055 19.0000007,13.4562575 19.0000052,4.51328499 C18.9993056,4.29675291 18.9784745,4.08066711 18.9377855,3.86781605 C18.8751105,3.5399529 18.9801581,3.20243539 19.2178251,2.96804947 C19.4405846,2.74836535 19.6469051,2.51421666 19.8356801,2.26755642 C19.609179,2.35111028 19.3799631,2.42783507 19.1483342,2.49758384 Z" id="Shape"></path>
            </g>
        </g>
    </g>
</svg>