<?xml version="1.0" encoding="UTF-8"?>
<svg width="17px" height="20px" viewBox="0 0 17 20" version="1.1" xmlns="http://www.w3.org/2000/svg" xmlns:xlink="http://www.w3.org/1999/xlink">
    <!-- Generator: sketchtool 51.3 (57544) - http://www.bohemiancoding.com/sketch -->
    <title>E54C72E6-DA55-4F00-A814-718A121C2BB9</title>
    <desc>Created with sketchtool.</desc>
    <defs></defs>
    <g id="style-guide" stroke="none" stroke-width="1" fill="none" fill-rule="evenodd">
        <g id="icons" transform="translate(-97.000000, -30.000000)" fill="#2E4676" fill-rule="nonzero">
            <g id="user_ico" transform="translate(97.000000, 31.000000)">
                <path d="M9.05172414,13 L7.44827586,13 C5.14536733,13 3.17617186,14.4287955 2.37880012,16.4482759 L14.1211999,16.4482759 C13.3238281,14.4287955 11.3546327,13 9.05172414,13 Z M7.44827586,11 L9.05172414,11 C13.1652933,11 16.5,14.3347067 16.5,18.4482759 L0,18.4482759 C-5.03766932e-16,14.3347067 3.33470669,11 7.44827586,11 Z" id="Rectangle-3"></path>
                <path d="M8.44230769,9.68965517 C5.44150927,9.68965517 3,7.30172134 3,4.34482759 C3,1.38793383 5.44150927,-1 8.44230769,-1 C11.4431061,-1 13.8846154,1.38793383 13.8846154,4.34482759 C13.8846154,7.30172134 11.4431061,9.68965517 8.44230769,9.68965517 Z M8.44230769,7.68965517 C10.3483469,7.68965517 11.8846154,6.18709787 11.8846154,4.34482759 C11.8846154,2.50255731 10.3483469,1 8.44230769,1 C6.53626853,1 5,2.50255731 5,4.34482759 C5,6.18709787 6.53626853,7.68965517 8.44230769,7.68965517 Z" id="Oval"></path>
            </g>
        </g>
    </g>
</svg>